CalSansUI-Light.ufo
<glyph name="numbersign" format="2">
  <advance width="757"/>
  <unicode hex="0023"/>
  <outline>
    <contour>
      <point x="378" y="0" type="line"/>
      <point x="446" y="0" type="line"/>
      <point x="505" y="235" type="line"/>
      <point x="511" y="257" type="line"/>
      <point x="570" y="490" type="line"/>
      <point x="576" y="515" type="line"/>
      <point x="630" y="730" type="line"/>
      <point x="560" y="730" type="line"/>
      <point x="507" y="515" type="line"/>
      <point x="504" y="492" type="line"/>
      <point x="445" y="257" type="line"/>
      <point x="437" y="236" type="line"/>
    </contour>
    <contour>
      <point x="118" y="0" type="line"/>
      <point x="183" y="0" type="line"/>
      <point x="243" y="237" type="line"/>
      <point x="245" y="258" type="line"/>
      <point x="304" y="492" type="line"/>
      <point x="313" y="514" type="line"/>
      <point x="367" y="730" type="line"/>
      <point x="300" y="730" type="line"/>
      <point x="246" y="515" type="line"/>
      <point x="240" y="492" type="line"/>
      <point x="183" y="264" type="line"/>
      <point x="176" y="235" type="line"/>
    </contour>
    <contour>
      <point x="65" y="212" type="line"/>
      <point x="677" y="212" type="line"/>
      <point x="677" y="277" type="line"/>
      <point x="65" y="277" type="line"/>
    </contour>
    <contour>
      <point x="80" y="469" type="line"/>
      <point x="692" y="469" type="line"/>
      <point x="692" y="534" type="line"/>
      <point x="80" y="534" type="line"/>
    </contour>
  </outline>
</glyph>
<glyph name="quotesingle" format="2">
  <advance width="195"/>
  <unicode hex="0027"/>
  <outline>
    <contour>
      <point x="79" y="468" type="line"/>
      <point x="115" y="468" type="line"/>
      <point x="141" y="648" type="line" smooth="yes"/>
      <point x="145" y="675"/>
      <point x="136" y="713"/>
      <point x="98" y="713" type="curve" smooth="yes"/>
      <point x="60" y="713"/>
      <point x="47" y="686"/>
      <point x="53" y="648" type="curve" smooth="yes"/>
    </contour>
  </outline>
</glyph>
<glyph name="parenleft" format="2">
  <advance width="324"/>
  <unicode hex="0028"/>
  <outline>
    <contour>
      <point x="217" y="-214" type="curve"/>
      <point x="277" y="-180" type="line"/>
      <point x="107" y="71"/>
      <point x="101" y="562"/>
      <point x="277" y="770" type="curve"/>
      <point x="217" y="803" type="line"/>
      <point x="31" y="545"/>
      <point x="30" y="65"/>
    </contour>
  </outline>
</glyph>
<glyph name="parenright" format="2">
  <advance width="324"/>
  <unicode hex="0029"/>
  <outline>
    <contour>
      <point x="107" y="-214" type="line"/>
      <point x="294" y="65"/>
      <point x="293" y="545"/>
      <point x="107" y="803" type="curve"/>
      <point x="47" y="770" type="line"/>
      <point x="223" y="562"/>
      <point x="217" y="71"/>
      <point x="47" y="-180" type="curve"/>
    </contour>
  </outline>
</glyph>
<glyph name="period" format="2">
  <advance width="219"/>
  <unicode hex="002E"/>
  <outline>
    <contour>
      <point x="110" y="-13" type="curve" smooth="yes"/>
      <point x="142" y="-13"/>
      <point x="165" y="12"/>
      <point x="165" y="42" type="curve" smooth="yes"/>
      <point x="165" y="71"/>
      <point x="142" y="95"/>
      <point x="110" y="95" type="curve" smooth="yes"/>
      <point x="77" y="95"/>
      <point x="54" y="71"/>
      <point x="54" y="42" type="curve" smooth="yes"/>
      <point x="54" y="12"/>
      <point x="77" y="-13"/>
    </contour>
  </outline>
</glyph>
<glyph name="two" format="2">
  <advance width="575"/>
  <unicode hex="0032"/>
  <outline>
    <contour>
      <point x="49" y="0" type="line"/>
      <point x="508" y="0" type="line"/>
      <point x="508" y="74" type="line"/>
      <point x="204" y="72" type="line"/>
      <point x="204" y="75" type="line"/>
      <point x="224" y="86"/>
      <point x="261" y="124"/>
      <point x="292" y="161" type="curve" smooth="yes"/>
      <point x="410" y="302" type="line" smooth="yes"/>
      <point x="474" y="377"/>
      <point x="501" y="437"/>
      <point x="501" y="504" type="curve" smooth="yes"/>
      <point x="501" y="607"/>
      <point x="418" y="713"/>
      <point x="278" y="713" type="curve" smooth="yes"/>
      <point x="142" y="713"/>
      <point x="49" y="614"/>
      <point x="49" y="470" type="curve"/>
      <point x="135" y="470" type="line"/>
      <point x="135" y="580"/>
      <point x="199" y="636"/>
      <point x="276" y="636" type="curve" smooth="yes"/>
      <point x="354" y="636"/>
      <point x="412" y="580"/>
      <point x="412" y="497" type="curve" smooth="yes"/>
      <point x="412" y="444"/>
      <point x="382" y="386"/>
      <point x="328" y="327" type="curve" smooth="yes"/>
      <point x="49" y="16" type="line"/>
    </contour>
  </outline>
</glyph>
<glyph name="three" format="2">
  <advance width="557"/>
  <unicode hex="0033"/>
  <outline>
    <contour>
      <point x="262" y="-13" type="curve" smooth="yes"/>
      <point x="394" y="-13"/>
      <point x="491" y="69"/>
      <point x="491" y="200" type="curve" smooth="yes"/>
      <point x="491" y="282"/>
      <point x="436" y="354"/>
      <point x="360" y="373" type="curve"/>
      <point x="360" y="377" type="line"/>
      <point x="430" y="393"/>
      <point x="475" y="466"/>
      <point x="475" y="524" type="curve" smooth="yes"/>
      <point x="475" y="634"/>
      <point x="389" y="713"/>
      <point x="262" y="713" type="curve" smooth="yes"/>
      <point x="128" y="713"/>
      <point x="36" y="634"/>
      <point x="39" y="500" type="curve"/>
      <point x="123" y="500" type="line"/>
      <point x="120" y="588"/>
      <point x="179" y="639"/>
      <point x="263" y="639" type="curve" smooth="yes"/>
      <point x="343" y="639"/>
      <point x="390" y="591"/>
      <point x="390" y="515" type="curve" smooth="yes"/>
      <point x="390" y="445"/>
      <point x="337" y="398"/>
      <point x="241" y="398" type="curve" smooth="yes"/>
      <point x="165" y="398" type="line"/>
      <point x="165" y="325" type="line"/>
      <point x="238" y="326" type="line" smooth="yes"/>
      <point x="343" y="326"/>
      <point x="405" y="278"/>
      <point x="405" y="197" type="curve" smooth="yes"/>
      <point x="405" y="117"/>
      <point x="350" y="61"/>
      <point x="262" y="61" type="curve" smooth="yes"/>
      <point x="181" y="61"/>
      <point x="119" y="120"/>
      <point x="122" y="209" type="curve"/>
      <point x="37" y="209" type="line"/>
      <point x="34" y="73"/>
      <point x="127" y="-13"/>
    </contour>
  </outline>
</glyph>
<glyph name="five" format="2">
  <advance width="582"/>
  <unicode hex="0035"/>
  <outline>
    <contour>
      <point x="280" y="-13" type="curve" smooth="yes"/>
      <point x="418" y="-13"/>
      <point x="514" y="84"/>
      <point x="514" y="219" type="curve" smooth="yes"/>
      <point x="514" y="334"/>
      <point x="437" y="431"/>
      <point x="291" y="431" type="curve" smooth="yes"/>
      <point x="268" y="431"/>
      <point x="240" y="426"/>
      <point x="217" y="418" type="curve"/>
      <point x="215" y="420" type="line"/>
      <point x="264" y="663" type="line"/>
      <point x="199" y="626" type="line"/>
      <point x="478" y="626" type="line"/>
      <point x="478" y="700" type="line"/>
      <point x="190" y="700" type="line"/>
      <point x="108" y="297" type="line"/>
      <point x="171" y="336"/>
      <point x="226" y="356"/>
      <point x="275" y="356" type="curve" smooth="yes"/>
      <point x="376" y="356"/>
      <point x="430" y="295"/>
      <point x="430" y="215" type="curve" smooth="yes"/>
      <point x="430" y="125"/>
      <point x="368" y="64"/>
      <point x="281" y="63" type="curve" smooth="yes"/>
      <point x="216" y="62"/>
      <point x="160" y="89"/>
      <point x="115" y="138" type="curve"/>
      <point x="58" y="84" type="line"/>
      <point x="109" y="19"/>
      <point x="192" y="-13"/>
    </contour>
  </outline>
</glyph>
<glyph name="at" format="2">
  <advance width="995"/>
  <unicode hex="0040"/>
  <outline>
    <contour>
      <point x="517" y="-216" type="curve" smooth="yes"/>
      <point x="571" y="-216"/>
      <point x="623" y="-208"/>
      <point x="671" y="-192" type="curve"/>
      <point x="650" y="-130" type="line"/>
      <point x="610" y="-143"/>
      <point x="568" y="-151"/>
      <point x="519" y="-151" type="curve" smooth="yes"/>
      <point x="282" y="-151"/>
      <point x="127" y="23"/>
      <point x="127" y="248" type="curve" smooth="yes"/>
      <point x="127" y="470"/>
      <point x="282" y="649"/>
      <point x="516" y="649" type="curve" smooth="yes"/>
      <point x="754" y="649"/>
      <point x="873" y="467"/>
      <point x="873" y="312" type="curve" smooth="yes"/>
      <point x="873" y="198"/>
      <point x="829" y="104"/>
      <point x="764" y="104" type="curve" smooth="yes"/>
      <point x="720" y="104"/>
      <point x="704" y="133"/>
      <point x="704" y="195" type="curve" smooth="yes"/>
      <point x="704" y="215"/>
      <point x="706" y="236"/>
      <point x="708" y="256" type="curve" smooth="yes"/>
      <point x="731" y="462" type="line"/>
      <point x="651" y="462" type="line"/>
      <point x="644" y="383" type="line"/>
      <point x="639" y="383" type="line"/>
      <point x="618" y="440"/>
      <point x="576" y="476"/>
      <point x="504" y="476" type="curve" smooth="yes"/>
      <point x="368" y="476"/>
      <point x="268" y="368"/>
      <point x="268" y="240" type="curve" smooth="yes"/>
      <point x="268" y="120"/>
      <point x="346" y="34"/>
      <point x="462" y="34" type="curve" smooth="yes"/>
      <point x="543" y="34"/>
      <point x="598" y="77"/>
      <point x="622" y="146" type="curve"/>
      <point x="627" y="146" type="line"/>
      <point x="635" y="77"/>
      <point x="683" y="34"/>
      <point x="754" y="34" type="curve" smooth="yes"/>
      <point x="871" y="34"/>
      <point x="942" y="161"/>
      <point x="942" y="296" type="curve" smooth="yes"/>
      <point x="942" y="507"/>
      <point x="781" y="713"/>
      <point x="517" y="713" type="curve" smooth="yes"/>
      <point x="250" y="713"/>
      <point x="58" y="507"/>
      <point x="58" y="248" type="curve" smooth="yes"/>
      <point x="58" y="-13"/>
      <point x="250" y="-216"/>
    </contour>
    <contour>
      <point x="478" y="108" type="curve" smooth="yes"/>
      <point x="399" y="108"/>
      <point x="349" y="163"/>
      <point x="349" y="242" type="curve" smooth="yes"/>
      <point x="349" y="333"/>
      <point x="414" y="402"/>
      <point x="513" y="402" type="curve" smooth="yes"/>
      <point x="573" y="402"/>
      <point x="628" y="346"/>
      <point x="628" y="271" type="curve" smooth="yes"/>
      <point x="628" y="181"/>
      <point x="558" y="108"/>
    </contour>
  </outline>
</glyph>
<glyph name="A" format="2">
  <advance width="693"/>
  <unicode hex="0041"/>
  <anchor x="353" y="0" name="bottom"/>
  <anchor x="592" y="0" name="ogonek"/>
  <anchor x="347" y="700" name="top"/>
  <anchor x="347" y="619" name="top_ring"/>
  <outline>
    <contour>
      <point x="13" y="0" type="line"/>
      <point x="101" y="0" type="line"/>
      <point x="173" y="177" type="line"/>
      <point x="185" y="208" type="line"/>
      <point x="307" y="500" type="line" smooth="yes"/>
      <point x="329" y="551"/>
      <point x="336" y="578"/>
      <point x="344" y="602" type="curve"/>
      <point x="349" y="602" type="line"/>
      <point x="357" y="578"/>
      <point x="364" y="552"/>
      <point x="386" y="500" type="curve" smooth="yes"/>
      <point x="507" y="208" type="line"/>
      <point x="519" y="177" type="line"/>
      <point x="592" y="0" type="line"/>
      <point x="680" y="0" type="line"/>
      <point x="380" y="700" type="line"/>
      <point x="313" y="700" type="line"/>
    </contour>
    <contour>
      <point x="150" y="156" type="line"/>
      <point x="538" y="156" type="line"/>
      <point x="538" y="232" type="line"/>
      <point x="150" y="232" type="line"/>
    </contour>
  </outline>
</glyph>
<glyph name="C" format="2">
  <advance width="682"/>
  <unicode hex="0043"/>
  <anchor x="399" y="0" name="bottom"/>
  <anchor x="502" y="0" name="ogonek"/>
  <anchor x="399" y="700" name="top"/>
  <outline>
    <contour>
      <point x="399" y="-13" type="curve" smooth="yes"/>
      <point x="513" y="-13"/>
      <point x="601" y="29"/>
      <point x="661" y="102" type="curve"/>
      <point x="601" y="151" type="line"/>
      <point x="550" y="93"/>
      <point x="492" y="63"/>
      <point x="402" y="63" type="curve" smooth="yes"/>
      <point x="251" y="63"/>
      <point x="128" y="182"/>
      <point x="128" y="349" type="curve" smooth="yes"/>
      <point x="128" y="515"/>
      <point x="241" y="637"/>
      <point x="399" y="637" type="curve" smooth="yes"/>
      <point x="475" y="637"/>
      <point x="543" y="615"/>
      <point x="594" y="551" type="curve"/>
      <point x="655" y="603" type="line"/>
      <point x="592" y="678"/>
      <point x="506" y="713"/>
      <point x="399" y="713" type="curve" smooth="yes"/>
      <point x="195" y="713"/>
      <point x="41" y="553"/>
      <point x="41" y="349" type="curve" smooth="yes"/>
      <point x="41" y="145"/>
      <point x="197" y="-13"/>
    </contour>
  </outline>
</glyph>
<glyph name="F" format="2">
  <advance width="547"/>
  <unicode hex="0046"/>
  <anchor x="124" y="0" name="bottom"/>
  <anchor x="104" y="0" name="ogonek"/>
  <anchor x="295" y="700" name="top"/>
  <outline>
    <contour>
      <point x="82" y="0" type="line"/>
      <point x="166" y="0" type="line"/>
      <point x="166" y="311" type="line"/>
      <point x="475" y="311" type="line"/>
      <point x="475" y="387" type="line"/>
      <point x="166" y="387" type="line"/>
      <point x="166" y="624" type="line"/>
      <point x="480" y="624" type="line"/>
      <point x="480" y="700" type="line"/>
      <point x="82" y="700" type="line"/>
    </contour>
  </outline>
</glyph>
<glyph name="J" format="2">
  <advance width="433"/>
  <unicode hex="004A"/>
  <anchor x="177" y="0" name="bottom"/>
  <anchor x="240" y="0" name="ogonek"/>
  <anchor x="314" y="700" name="top"/>
  <outline>
    <contour>
      <point x="177" y="-12" type="curve" smooth="yes"/>
      <point x="290" y="-9"/>
      <point x="356" y="60"/>
      <point x="356" y="186" type="curve" smooth="yes"/>
      <point x="356" y="700" type="line"/>
      <point x="272" y="700" type="line"/>
      <point x="272" y="186" type="line" smooth="yes"/>
      <point x="272" y="109"/>
      <point x="232" y="66"/>
      <point x="171" y="66" type="curve" smooth="yes"/>
      <point x="138" y="66"/>
      <point x="110" y="74"/>
      <point x="88" y="100" type="curve"/>
      <point x="34" y="35" type="line"/>
      <point x="71" y="-2"/>
      <point x="120" y="-13"/>
    </contour>
  </outline>
</glyph>
<glyph name="N" format="2">
  <advance width="755"/>
  <unicode hex="004E"/>
  <anchor x="385" y="0" name="bottom"/>
  <anchor x="666" y="0" name="ogonek"/>
  <anchor x="376" y="700" name="top"/>
  <outline>
    <contour>
      <point x="82" y="0" type="line"/>
      <point x="163" y="0" type="line"/>
      <point x="163" y="453" type="line" smooth="yes"/>
      <point x="163" y="512"/>
      <point x="161" y="551"/>
      <point x="157" y="574" type="curve"/>
      <point x="160" y="574" type="line"/>
      <point x="164" y="562"/>
      <point x="180" y="537"/>
      <point x="201" y="511" type="curve" smooth="yes"/>
      <point x="603" y="0" type="line"/>
      <point x="673" y="0" type="line"/>
      <point x="673" y="700" type="line"/>
      <point x="592" y="700" type="line"/>
      <point x="592" y="255" type="line" smooth="yes"/>
      <point x="592" y="182"/>
      <point x="594" y="151"/>
      <point x="599" y="130" type="curve"/>
      <point x="595" y="130" type="line"/>
      <point x="591" y="142"/>
      <point x="569" y="175"/>
      <point x="550" y="199" type="curve" smooth="yes"/>
      <point x="156" y="700" type="line"/>
      <point x="82" y="700" type="line"/>
    </contour>
  </outline>
</glyph>
<glyph name="P" format="2">
  <advance width="576"/>
  <unicode hex="0050"/>
  <anchor x="123" y="0" name="bottom"/>
  <anchor x="164" y="0" name="ogonek"/>
  <anchor x="285" y="700" name="top"/>
  <outline>
    <contour>
      <point x="82" y="0" type="line"/>
      <point x="164" y="0" type="line"/>
      <point x="164" y="297" type="line"/>
      <point x="306" y="297" type="line" smooth="yes"/>
      <point x="433" y="297"/>
      <point x="534" y="363"/>
      <point x="534" y="500" type="curve" smooth="yes"/>
      <point x="534" y="636"/>
      <point x="432" y="700"/>
      <point x="306" y="700" type="curve" smooth="yes"/>
      <point x="82" y="700" type="line"/>
    </contour>
    <contour>
      <point x="164" y="373" type="line"/>
      <point x="164" y="624" type="line"/>
      <point x="298" y="624" type="line" smooth="yes"/>
      <point x="388" y="624"/>
      <point x="449" y="592"/>
      <point x="449" y="500" type="curve" smooth="yes"/>
      <point x="449" y="406"/>
      <point x="388" y="373"/>
      <point x="298" y="373" type="curve" smooth="yes"/>
    </contour>
  </outline>
</glyph>
<glyph name="Q" format="2">
  <advance width="778"/>
  <unicode hex="0051"/>
  <anchor x="390" y="0" name="bottom"/>
  <anchor x="383" y="338" name="center"/>
  <anchor x="486" y="0" name="ogonek"/>
  <anchor x="390" y="700" name="top"/>
  <anchor x="595" y="700" name="topright"/>
  <outline>
    <contour>
      <point x="619" y="-58" type="line"/>
      <point x="706" y="-58" type="line"/>
      <point x="598" y="105" type="line"/>
      <point x="592" y="127" type="line"/>
      <point x="503" y="257" type="line"/>
      <point x="416" y="257" type="line"/>
      <point x="537" y="76" type="line"/>
      <point x="542" y="56" type="line"/>
    </contour>
    <component base="O"/>
  </outline>
</glyph>
<glyph name="X" format="2">
  <advance width="645"/>
  <unicode hex="0058"/>
  <anchor x="323" y="0" name="bottom"/>
  <anchor x="323" y="700" name="top"/>
  <outline>
    <contour>
      <point x="22" y="0" type="line"/>
      <point x="125" y="0" type="line"/>
      <point x="323" y="284" type="line"/>
      <point x="327" y="284" type="line"/>
      <point x="521" y="0" type="line"/>
      <point x="626" y="0" type="line"/>
      <point x="378" y="348" type="line"/>
      <point x="615" y="700" type="line"/>
      <point x="516" y="700" type="line"/>
      <point x="327" y="415" type="line"/>
      <point x="323" y="415" type="line"/>
      <point x="137" y="700" type="line"/>
      <point x="33" y="700" type="line"/>
      <point x="272" y="351" type="line"/>
    </contour>
  </outline>
</glyph>
<glyph name="bracketleft" format="2">
  <advance width="301"/>
  <unicode hex="005B"/>
  <outline>
    <contour>
      <point x="83" y="-220" type="line"/>
      <point x="246" y="-220" type="line"/>
      <point x="246" y="-163" type="line"/>
      <point x="151" y="-163" type="line"/>
      <point x="151" y="683" type="line"/>
      <point x="246" y="683" type="line"/>
      <point x="246" y="740" type="line"/>
      <point x="83" y="740" type="line"/>
    </contour>
  </outline>
</glyph>
<glyph name="e" format="2">
  <advance width="549"/>
  <unicode hex="0065"/>
  <anchor x="286" y="0" name="bottom"/>
  <anchor x="311" y="4" name="ogonek"/>
  <anchor x="286" y="490" name="top"/>
  <outline>
    <contour>
      <point x="286" y="-13" type="curve" smooth="yes"/>
      <point x="374" y="-13"/>
      <point x="447" y="19"/>
      <point x="493" y="80" type="curve"/>
      <point x="436" y="129" type="line"/>
      <point x="401" y="81"/>
      <point x="355" y="61"/>
      <point x="287" y="61" type="curve" smooth="yes"/>
      <point x="193" y="61"/>
      <point x="118" y="129"/>
      <point x="116" y="233" type="curve"/>
      <point x="116" y="245" type="line"/>
      <point x="115" y="362"/>
      <point x="182" y="429"/>
      <point x="283" y="429" type="curve" smooth="yes"/>
      <point x="389" y="429"/>
      <point x="445" y="352"/>
      <point x="441" y="245" type="curve"/>
      <point x="469" y="284" type="line"/>
      <point x="75" y="284" type="line"/>
      <point x="75" y="214" type="line"/>
      <point x="519" y="214" type="line"/>
      <point x="521" y="223"/>
      <point x="521" y="236"/>
      <point x="521" y="246" type="curve" smooth="yes"/>
      <point x="521" y="397"/>
      <point x="432" y="503"/>
      <point x="285" y="503" type="curve" smooth="yes"/>
      <point x="139" y="503"/>
      <point x="36" y="392"/>
      <point x="36" y="246" type="curve" smooth="yes"/>
      <point x="36" y="96"/>
      <point x="137" y="-13"/>
    </contour>
  </outline>
</glyph>
<glyph name="g" format="2">
  <advance width="625"/>
  <unicode hex="0067"/>
  <anchor x="283" y="-220" name="bottom"/>
  <anchor x="374" y="-220" name="ogonek"/>
  <anchor x="292" y="490" name="top"/>
  <outline>
    <contour>
      <point x="283" y="-233" type="curve" smooth="yes"/>
      <point x="442" y="-230"/>
      <point x="553" y="-137"/>
      <point x="553" y="29" type="curve" smooth="yes"/>
      <point x="553" y="490" type="line"/>
      <point x="477" y="490" type="line"/>
      <point x="477" y="398" type="line"/>
      <point x="471" y="398" type="line"/>
      <point x="438" y="458"/>
      <point x="379" y="503"/>
      <point x="289" y="503" type="curve" smooth="yes"/>
      <point x="146" y="503"/>
      <point x="36" y="393"/>
      <point x="36" y="246" type="curve" smooth="yes"/>
      <point x="36" y="99"/>
      <point x="146" y="-9"/>
      <point x="289" y="-9" type="curve" smooth="yes"/>
      <point x="376" y="-9"/>
      <point x="437" y="37"/>
      <point x="467" y="97" type="curve"/>
      <point x="473" y="97" type="line"/>
      <point x="473" y="27" type="line" smooth="yes"/>
      <point x="474" y="-84"/>
      <point x="395" y="-158"/>
      <point x="288" y="-158" type="curve" smooth="yes"/>
      <point x="211" y="-158"/>
      <point x="158" y="-136"/>
      <point x="105" y="-78" type="curve"/>
      <point x="45" y="-128" type="line"/>
      <point x="111" y="-210"/>
      <point x="198" y="-234"/>
    </contour>
    <contour>
      <point x="297" y="65" type="curve" smooth="yes"/>
      <point x="185" y="65"/>
      <point x="116" y="147"/>
      <point x="116" y="247" type="curve" smooth="yes"/>
      <point x="116" y="349"/>
      <point x="185" y="429"/>
      <point x="297" y="429" type="curve" smooth="yes"/>
      <point x="411" y="429"/>
      <point x="472" y="346"/>
      <point x="472" y="246" type="curve" smooth="yes"/>
      <point x="472" y="146"/>
      <point x="411" y="65"/>
    </contour>
  </outline>
</glyph>
<glyph name="m" format="2">
  <advance width="878"/>
  <unicode hex="006D"/>
  <anchor x="437" y="0" name="bottom"/>
  <anchor x="731" y="0" name="ogonek"/>
  <anchor x="445" y="490" name="top"/>
  <outline>
    <contour>
      <point x="72" y="0" type="line"/>
      <point x="152" y="0" type="line"/>
      <point x="152" y="307" type="line" smooth="yes"/>
      <point x="152" y="381"/>
      <point x="201" y="429"/>
      <point x="278" y="429" type="curve" smooth="yes"/>
      <point x="364" y="429"/>
      <point x="403" y="381"/>
      <point x="403" y="307" type="curve" smooth="yes"/>
      <point x="403" y="0" type="line"/>
      <point x="483" y="0" type="line"/>
      <point x="483" y="314" type="line" smooth="yes"/>
      <point x="483" y="384"/>
      <point x="531" y="429"/>
      <point x="607" y="429" type="curve" smooth="yes"/>
      <point x="683" y="429"/>
      <point x="731" y="381"/>
      <point x="731" y="307" type="curve" smooth="yes"/>
      <point x="731" y="0" type="line"/>
      <point x="811" y="0" type="line"/>
      <point x="811" y="326" type="line" smooth="yes"/>
      <point x="811" y="427"/>
      <point x="730" y="503"/>
      <point x="621" y="503" type="curve" smooth="yes"/>
      <point x="543" y="503"/>
      <point x="479" y="469"/>
      <point x="458" y="416" type="curve"/>
      <point x="452" y="416" type="line"/>
      <point x="429" y="469"/>
      <point x="372" y="503"/>
      <point x="300" y="503" type="curve" smooth="yes"/>
      <point x="237" y="503"/>
      <point x="180" y="473"/>
      <point x="154" y="424" type="curve"/>
      <point x="148" y="424" type="line"/>
      <point x="148" y="490" type="line"/>
      <point x="72" y="490" type="line"/>
    </contour>
  </outline>
</glyph>
<glyph name="n" format="2">
  <advance width="559"/>
  <unicode hex="006E"/>
  <anchor x="288" y="0" name="bottom"/>
  <anchor x="412" y="0" name="ogonek"/>
  <anchor x="299" y="490" name="top"/>
  <outline>
    <contour>
      <point x="72" y="0" type="line"/>
      <point x="152" y="0" type="line"/>
      <point x="152" y="296" type="line" smooth="yes"/>
      <point x="152" y="378"/>
      <point x="207" y="429"/>
      <point x="294" y="429" type="curve" smooth="yes"/>
      <point x="366" y="429"/>
      <point x="412" y="378"/>
      <point x="412" y="296" type="curve" smooth="yes"/>
      <point x="412" y="0" type="line"/>
      <point x="492" y="0" type="line"/>
      <point x="492" y="314" type="line" smooth="yes"/>
      <point x="492" y="431"/>
      <point x="416" y="503"/>
      <point x="306" y="503" type="curve" smooth="yes"/>
      <point x="225" y="503"/>
      <point x="181" y="463"/>
      <point x="154" y="416" type="curve"/>
      <point x="148" y="416" type="line"/>
      <point x="148" y="490" type="line"/>
      <point x="72" y="490" type="line"/>
    </contour>
  </outline>
</glyph>
<glyph name="o" format="2">
  <advance width="569"/>
  <unicode hex="006F"/>
  <anchor x="284" y="0" name="bottom"/>
  <anchor x="284" y="244" name="center"/>
  <anchor x="290" y="0" name="ogonek"/>
  <anchor x="284" y="490" name="top"/>
  <anchor x="451" y="490" name="topright"/>
  <outline>
    <contour>
      <point x="284" y="-13" type="curve" smooth="yes"/>
      <point x="429" y="-13"/>
      <point x="533" y="95"/>
      <point x="533" y="246" type="curve" smooth="yes"/>
      <point x="533" y="396"/>
      <point x="429" y="503"/>
      <point x="284" y="503" type="curve" smooth="yes"/>
      <point x="140" y="503"/>
      <point x="36" y="395"/>
      <point x="36" y="244" type="curve" smooth="yes"/>
      <point x="36" y="94"/>
      <point x="140" y="-13"/>
    </contour>
    <contour>
      <point x="284" y="61" type="curve" smooth="yes"/>
      <point x="181" y="61"/>
      <point x="116" y="141"/>
      <point x="116" y="245" type="curve" smooth="yes"/>
      <point x="116" y="351"/>
      <point x="181" y="429"/>
      <point x="284" y="429" type="curve" smooth="yes"/>
      <point x="387" y="429"/>
      <point x="453" y="349"/>
      <point x="453" y="245" type="curve" smooth="yes"/>
      <point x="453" y="139"/>
      <point x="387" y="61"/>
    </contour>
  </outline>
</glyph>
<glyph name="p" format="2">
  <advance width="610"/>
  <unicode hex="0070"/>
  <anchor x="329" y="0" name="bottom"/>
  <anchor x="412" y="0" name="ogonek"/>
  <anchor x="329" y="490" name="top"/>
  <outline>
    <contour>
      <point x="329" y="-13" type="curve" smooth="yes"/>
      <point x="472" y="-13"/>
      <point x="574" y="92"/>
      <point x="574" y="244" type="curve" smooth="yes"/>
      <point x="574" y="396"/>
      <point x="472" y="502"/>
      <point x="329" y="502" type="curve" smooth="yes"/>
      <point x="244" y="502"/>
      <point x="182" y="457"/>
      <point x="154" y="399" type="curve"/>
      <point x="148" y="399" type="line"/>
      <point x="148" y="490" type="line"/>
      <point x="72" y="490" type="line"/>
      <point x="72" y="-220" type="line"/>
      <point x="152" y="-220" type="line"/>
      <point x="152" y="94" type="line"/>
      <point x="158" y="94" type="line"/>
      <point x="186" y="34"/>
      <point x="246" y="-13"/>
    </contour>
    <contour>
      <point x="321" y="61" type="curve" smooth="yes"/>
      <point x="217" y="61"/>
      <point x="150" y="142"/>
      <point x="150" y="244" type="curve" smooth="yes"/>
      <point x="150" y="350"/>
      <point x="217" y="428"/>
      <point x="321" y="428" type="curve" smooth="yes"/>
      <point x="431" y="428"/>
      <point x="494" y="352"/>
      <point x="494" y="245" type="curve" smooth="yes"/>
      <point x="494" y="140"/>
      <point x="431" y="61"/>
    </contour>
  </outline>
</glyph>
<glyph name="r" format="2">
  <advance width="344"/>
  <unicode hex="0072"/>
  <anchor x="112" y="0" name="bottom"/>
  <anchor x="205" y="490" name="top"/>
  <outline>
    <contour>
      <point x="72" y="0" type="line"/>
      <point x="152" y="0" type="line"/>
      <point x="152" y="287" type="line" smooth="yes"/>
      <point x="152" y="374"/>
      <point x="213" y="416"/>
      <point x="307" y="416" type="curve" smooth="yes"/>
      <point x="332" y="416" type="line"/>
      <point x="334" y="496" type="line"/>
      <point x="326" y="497"/>
      <point x="318" y="497"/>
      <point x="311" y="497" type="curve" smooth="yes"/>
      <point x="224" y="497"/>
      <point x="175" y="463"/>
      <point x="154" y="415" type="curve"/>
      <point x="148" y="415" type="line"/>
      <point x="148" y="490" type="line"/>
      <point x="72" y="490" type="line"/>
    </contour>
  </outline>
</glyph>
<glyph name="s" format="2">
  <advance width="463"/>
  <unicode hex="0073"/>
  <anchor x="231" y="0" name="bottom"/>
  <anchor x="306" y="0" name="ogonek"/>
  <anchor x="240" y="490" name="top"/>
  <outline>
    <contour>
      <point x="231" y="-13" type="curve" smooth="yes"/>
      <point x="327" y="-13"/>
      <point x="412" y="43"/>
      <point x="412" y="139" type="curve" smooth="yes"/>
      <point x="412" y="215"/>
      <point x="363" y="260"/>
      <point x="248" y="286" type="curve" smooth="yes"/>
      <point x="164" y="305"/>
      <point x="143" y="327"/>
      <point x="143" y="367" type="curve" smooth="yes"/>
      <point x="143" y="406"/>
      <point x="187" y="435"/>
      <point x="240" y="435" type="curve" smooth="yes"/>
      <point x="286" y="435"/>
      <point x="322" y="415"/>
      <point x="350" y="370" type="curve"/>
      <point x="411" y="415" type="line"/>
      <point x="368" y="477"/>
      <point x="316" y="503"/>
      <point x="235" y="503" type="curve" smooth="yes"/>
      <point x="139" y="503"/>
      <point x="62" y="442"/>
      <point x="62" y="360" type="curve" smooth="yes"/>
      <point x="62" y="285"/>
      <point x="112" y="239"/>
      <point x="215" y="214" type="curve" smooth="yes"/>
      <point x="296" y="195"/>
      <point x="331" y="173"/>
      <point x="331" y="132" type="curve" smooth="yes"/>
      <point x="331" y="83"/>
      <point x="285" y="59"/>
      <point x="227" y="59" type="curve" smooth="yes"/>
      <point x="172" y="59"/>
      <point x="137" y="81"/>
      <point x="94" y="126" type="curve"/>
      <point x="40" y="70" type="line"/>
      <point x="98" y="13"/>
      <point x="149" y="-13"/>
    </contour>
  </outline>
</glyph>
<glyph name="v" format="2">
  <advance width="508"/>
  <unicode hex="0076"/>
  <anchor x="254" y="0" name="bottom"/>
  <anchor x="254" y="490" name="top"/>
  <outline>
    <contour>
      <point x="207" y="0" type="line"/>
      <point x="300" y="0" type="line"/>
      <point x="491" y="490" type="line"/>
      <point x="400" y="490" type="line"/>
      <point x="293" y="174" type="line" smooth="yes"/>
      <point x="283" y="146"/>
      <point x="268" y="103"/>
      <point x="260" y="68" type="curve"/>
      <point x="252" y="68" type="line"/>
      <point x="244" y="103"/>
      <point x="227" y="145"/>
      <point x="217" y="174" type="curve" smooth="yes"/>
      <point x="108" y="490" type="line"/>
      <point x="17" y="490" type="line"/>
    </contour>
  </outline>
</glyph>
<glyph name="y" format="2">
  <advance width="509"/>
  <unicode hex="0079"/>
  <anchor x="405" y="0" name="bottom"/>
  <anchor x="139" y="-213" name="ogonek"/>
  <anchor x="258" y="490" name="top"/>
  <anchor x="259" y="429" name="top_hook"/>
  <outline>
    <contour>
      <point x="79" y="-223" type="curve" smooth="yes"/>
      <point x="150" y="-223"/>
      <point x="217" y="-202"/>
      <point x="271" y="-73" type="curve" smooth="yes"/>
      <point x="509" y="490" type="line"/>
      <point x="418" y="490" type="line"/>
      <point x="298" y="174" type="line" smooth="yes"/>
      <point x="287" y="145"/>
      <point x="268" y="95"/>
      <point x="260" y="59" type="curve"/>
      <point x="253" y="59" type="line"/>
      <point x="245" y="95"/>
      <point x="223" y="146"/>
      <point x="212" y="174" type="curve" smooth="yes"/>
      <point x="91" y="490" type="line"/>
      <point x="0" y="490" type="line"/>
      <point x="207" y="-7" type="line"/>
      <point x="187" y="-57" type="line" smooth="yes"/>
      <point x="157" y="-131"/>
      <point x="119" y="-147"/>
      <point x="77" y="-147" type="curve" smooth="yes"/>
      <point x="53" y="-147"/>
      <point x="35" y="-144"/>
      <point x="14" y="-137" type="curve"/>
      <point x="0" y="-211" type="line"/>
      <point x="21" y="-218"/>
      <point x="46" y="-223"/>
    </contour>
  </outline>
</glyph>
<glyph name="z" format="2">
  <advance width="527"/>
  <unicode hex="007A"/>
  <anchor x="255" y="0" name="bottom"/>
  <anchor x="473" y="0" name="ogonek"/>
  <anchor x="255" y="490" name="top"/>
  <outline>
    <contour>
      <point x="46" y="0" type="line"/>
      <point x="473" y="0" type="line"/>
      <point x="473" y="72" type="line"/>
      <point x="180" y="72" type="line"/>
      <point x="180" y="74" type="line"/>
      <point x="193" y="84"/>
      <point x="202" y="96"/>
      <point x="220" y="121" type="curve" smooth="yes"/>
      <point x="477" y="475" type="line"/>
      <point x="477" y="490" type="line"/>
      <point x="56" y="490" type="line"/>
      <point x="56" y="418" type="line"/>
      <point x="346" y="418" type="line"/>
      <point x="346" y="416" type="line"/>
      <point x="333" y="406"/>
      <point x="322" y="391"/>
      <point x="302" y="364" type="curve" smooth="yes"/>
      <point x="46" y="15" type="line"/>
    </contour>
  </outline>
</glyph>
<glyph name="currency" format="2">
  <advance width="595"/>
  <unicode hex="00A4"/>
  <anchor x="168.655071" y="461.573967" name="_TopCurrency"/>
  <outline>
    <contour>
      <point x="295" y="107" type="curve" smooth="yes"/>
      <point x="418" y="107"/>
      <point x="507" y="198"/>
      <point x="507" y="322" type="curve" smooth="yes"/>
      <point x="507" y="446"/>
      <point x="418" y="538"/>
      <point x="295" y="538" type="curve" smooth="yes"/>
      <point x="172" y="538"/>
      <point x="83" y="446"/>
      <point x="83" y="322" type="curve" smooth="yes"/>
      <point x="83" y="198"/>
      <point x="172" y="107"/>
    </contour>
    <contour>
      <point x="295" y="174" type="curve" smooth="yes"/>
      <point x="217" y="174"/>
      <point x="157" y="230"/>
      <point x="157" y="322" type="curve" smooth="yes"/>
      <point x="157" y="414"/>
      <point x="217" y="471"/>
      <point x="295" y="471" type="curve" smooth="yes"/>
      <point x="373" y="471"/>
      <point x="433" y="414"/>
      <point x="433" y="322" type="curve" smooth="yes"/>
      <point x="433" y="230"/>
      <point x="373" y="174"/>
    </contour>
    <component base="verticalTopCurrencycomb" xScale="0.7313537016191705" xyScale="0.6819983600624985" yxScale="-0.6819983600624985" yScale="0.7313537016191705" xOffset="614" yOffset="-16"/>
    <component base="verticalTopCurrencycomb" xScale="0.7313537016191705" xyScale="-0.6819983600624985" yxScale="0.6819983600624985" yScale="0.7313537016191705" xOffset="-20" yOffset="-16"/>
    <component base="verticalTopCurrencycomb" xScale="-0.7313537016191705" xyScale="-0.6819983600624986" yxScale="0.6819983600624986" yScale="-0.7313537016191705" xOffset="-19" yOffset="663"/>
    <component base="verticalTopCurrencycomb" xScale="-0.7313537016191705" xyScale="0.6819983600624986" yxScale="-0.6819983600624986" yScale="-0.7313537016191705" xOffset="615" yOffset="663"/>
  </outline>
</glyph>
<glyph name="section" format="2">
  <advance width="522"/>
  <unicode hex="00A7"/>
  <outline>
    <contour>
      <point x="264" y="-108" type="curve" smooth="yes"/>
      <point x="364" y="-108"/>
      <point x="441" y="-50"/>
      <point x="441" y="47" type="curve" smooth="yes"/>
      <point x="441" y="97"/>
      <point x="420" y="142"/>
      <point x="372" y="168" type="curve"/>
      <point x="372" y="170" type="line"/>
      <point x="426" y="199"/>
      <point x="447" y="255"/>
      <point x="447" y="299" type="curve" smooth="yes"/>
      <point x="447" y="384"/>
      <point x="380" y="431"/>
      <point x="292" y="459" type="curve" smooth="yes"/>
      <point x="227" y="480"/>
      <point x="175" y="507"/>
      <point x="175" y="564" type="curve" smooth="yes"/>
      <point x="175" y="608"/>
      <point x="212" y="644"/>
      <point x="278" y="644" type="curve" smooth="yes"/>
      <point x="324" y="644"/>
      <point x="363" y="621"/>
      <point x="391" y="576" type="curve"/>
      <point x="443" y="610" type="line"/>
      <point x="409" y="664"/>
      <point x="357" y="701"/>
      <point x="279" y="701" type="curve" smooth="yes"/>
      <point x="172" y="701"/>
      <point x="110" y="629"/>
      <point x="110" y="557" type="curve" smooth="yes"/>
      <point x="110" y="501"/>
      <point x="137" y="459"/>
      <point x="191" y="433" type="curve"/>
      <point x="191" y="431" type="line"/>
      <point x="144" y="416"/>
      <point x="104" y="360"/>
      <point x="104" y="311" type="curve" smooth="yes"/>
      <point x="104" y="234"/>
      <point x="145" y="188"/>
      <point x="229" y="158" type="curve" smooth="yes"/>
      <point x="306" y="130"/>
      <point x="376" y="111"/>
      <point x="376" y="43" type="curve" smooth="yes"/>
      <point x="376" y="-20"/>
      <point x="324" y="-50"/>
      <point x="268" y="-50" type="curve" smooth="yes"/>
      <point x="208" y="-50"/>
      <point x="162" y="-24"/>
      <point x="127" y="31" type="curve"/>
      <point x="75" y="-4" type="line"/>
      <point x="117" y="-70"/>
      <point x="183" y="-108"/>
    </contour>
    <contour>
      <point x="289" y="203" type="curve" smooth="yes"/>
      <point x="220" y="203"/>
      <point x="169" y="241"/>
      <point x="169" y="309" type="curve" smooth="yes"/>
      <point x="169" y="363"/>
      <point x="216" y="392"/>
      <point x="259" y="392" type="curve" smooth="yes"/>
      <point x="324" y="392"/>
      <point x="382" y="356"/>
      <point x="382" y="295" type="curve" smooth="yes"/>
      <point x="382" y="238"/>
      <point x="334" y="203"/>
    </contour>
  </outline>
</glyph>
<glyph name="ordfeminine" format="2">
  <advance width="477"/>
  <unicode hex="00AA"/>
  <outline>
    <contour>
      <point x="73" y="201" type="line"/>
      <point x="387" y="201" type="line"/>
      <point x="387" y="256" type="line"/>
      <point x="73" y="256" type="line"/>
    </contour>
    <contour>
      <point x="189" y="310" type="curve" smooth="yes"/>
      <point x="268" y="310"/>
      <point x="302" y="350"/>
      <point x="323" y="378" type="curve"/>
      <point x="328" y="378" type="line"/>
      <point x="328" y="320" type="line"/>
      <point x="387" y="320" type="line"/>
      <point x="387" y="571" type="line" smooth="yes"/>
      <point x="387" y="664"/>
      <point x="302" y="713"/>
      <point x="226" y="713" type="curve" smooth="yes"/>
      <point x="153" y="713"/>
      <point x="103" y="691"/>
      <point x="58" y="643" type="curve"/>
      <point x="100" y="599" type="line"/>
      <point x="133" y="637"/>
      <point x="174" y="655"/>
      <point x="223" y="655" type="curve" smooth="yes"/>
      <point x="272" y="655"/>
      <point x="324" y="629"/>
      <point x="324" y="573" type="curve" smooth="yes"/>
      <point x="324" y="540" type="line"/>
      <point x="335" y="548" type="line"/>
      <point x="243" y="543" type="line" smooth="yes"/>
      <point x="127" y="537"/>
      <point x="55" y="498"/>
      <point x="55" y="421" type="curve" smooth="yes"/>
      <point x="55" y="358"/>
      <point x="115" y="310"/>
    </contour>
    <contour>
      <point x="200" y="363" type="curve" smooth="yes"/>
      <point x="148" y="363"/>
      <point x="118" y="384"/>
      <point x="118" y="424" type="curve" smooth="yes"/>
      <point x="118" y="466"/>
      <point x="163" y="485"/>
      <point x="248" y="491" type="curve" smooth="yes"/>
      <point x="333" y="497" type="line"/>
      <point x="324" y="508" type="line"/>
      <point x="324" y="479" type="line" smooth="yes"/>
      <point x="324" y="417"/>
      <point x="276" y="363"/>
    </contour>
  </outline>
</glyph>
<glyph name="logicalnot" format="2">
  <advance width="596"/>
  <unicode hex="00AC"/>
  <outline>
    <contour>
      <point x="425" y="188" type="line"/>
      <point x="505" y="188" type="line"/>
      <point x="505" y="390" type="line"/>
      <point x="91" y="390" type="line"/>
      <point x="91" y="318" type="line"/>
      <point x="425" y="318" type="line"/>
    </contour>
  </outline>
</glyph>
<glyph name="registered" format="2">
  <advance width="591"/>
  <unicode hex="00AE"/>
  <outline>
    <contour>
      <point x="295" y="230" type="curve" smooth="yes"/>
      <point x="433" y="230"/>
      <point x="536" y="341"/>
      <point x="536" y="479" type="curve" smooth="yes"/>
      <point x="536" y="617"/>
      <point x="433" y="727"/>
      <point x="295" y="727" type="curve" smooth="yes"/>
      <point x="158" y="727"/>
      <point x="55" y="617"/>
      <point x="55" y="479" type="curve" smooth="yes"/>
      <point x="55" y="341"/>
      <point x="158" y="230"/>
    </contour>
    <contour>
      <point x="295" y="270" type="curve" smooth="yes"/>
      <point x="181" y="270"/>
      <point x="97" y="364"/>
      <point x="97" y="479" type="curve" smooth="yes"/>
      <point x="97" y="593"/>
      <point x="181" y="687"/>
      <point x="295" y="687" type="curve" smooth="yes"/>
      <point x="410" y="687"/>
      <point x="494" y="593"/>
      <point x="494" y="479" type="curve" smooth="yes"/>
      <point x="494" y="364"/>
      <point x="410" y="270"/>
    </contour>
    <contour>
      <point x="208" y="350" type="line"/>
      <point x="243" y="350" type="line"/>
      <point x="243" y="462" type="line"/>
      <point x="277" y="462" type="line"/>
      <point x="283" y="452"/>
      <point x="287" y="445"/>
      <point x="291" y="439" type="curve" smooth="yes"/>
      <point x="349" y="350" type="line"/>
      <point x="390" y="350" type="line"/>
      <point x="315" y="465" type="line"/>
      <point x="353" y="469"/>
      <point x="387" y="494"/>
      <point x="387" y="538" type="curve" smooth="yes"/>
      <point x="387" y="587"/>
      <point x="346" y="611"/>
      <point x="295" y="611" type="curve" smooth="yes"/>
      <point x="208" y="611" type="line"/>
    </contour>
    <contour>
      <point x="243" y="492" type="line"/>
      <point x="243" y="582" type="line"/>
      <point x="291" y="582" type="line" smooth="yes"/>
      <point x="328" y="582"/>
      <point x="352" y="571"/>
      <point x="352" y="538" type="curve" smooth="yes"/>
      <point x="352" y="503"/>
      <point x="328" y="492"/>
      <point x="291" y="492" type="curve" smooth="yes"/>
    </contour>
  </outline>
</glyph>
<glyph name="ordmasculine" format="2">
  <advance width="508"/>
  <unicode hex="00BA"/>
  <outline>
    <contour>
      <point x="254" y="312" type="curve" smooth="yes"/>
      <point x="374" y="312"/>
      <point x="453" y="405"/>
      <point x="453" y="512" type="curve" smooth="yes"/>
      <point x="453" y="620"/>
      <point x="374" y="713"/>
      <point x="254" y="713" type="curve" smooth="yes"/>
      <point x="134" y="713"/>
      <point x="55" y="620"/>
      <point x="55" y="512" type="curve" smooth="yes"/>
      <point x="55" y="405"/>
      <point x="134" y="312"/>
    </contour>
    <contour>
      <point x="254" y="370" type="curve" smooth="yes"/>
      <point x="171" y="370"/>
      <point x="119" y="430"/>
      <point x="119" y="512" type="curve" smooth="yes"/>
      <point x="119" y="593"/>
      <point x="171" y="655"/>
      <point x="254" y="655" type="curve" smooth="yes"/>
      <point x="336" y="655"/>
      <point x="388" y="593"/>
      <point x="388" y="512" type="curve" smooth="yes"/>
      <point x="388" y="430"/>
      <point x="336" y="370"/>
    </contour>
    <contour>
      <point x="76" y="201" type="line"/>
      <point x="432" y="201" type="line"/>
      <point x="432" y="256" type="line"/>
      <point x="76" y="256" type="line"/>
    </contour>
  </outline>
</glyph>
<glyph name="germandbls" format="2">
  <advance width="612"/>
  <unicode hex="00DF"/>
  <outline>
    <contour>
      <point x="338" y="-13" type="curve" smooth="yes"/>
      <point x="494" y="-13"/>
      <point x="565" y="90"/>
      <point x="565" y="205" type="curve" smooth="yes"/>
      <point x="565" y="319"/>
      <point x="480" y="404"/>
      <point x="366" y="404" type="curve"/>
      <point x="366" y="408" type="line"/>
      <point x="445" y="428"/>
      <point x="504" y="494"/>
      <point x="504" y="569" type="curve" smooth="yes"/>
      <point x="504" y="664"/>
      <point x="414" y="753"/>
      <point x="295" y="753" type="curve" smooth="yes"/>
      <point x="168" y="753"/>
      <point x="72" y="659"/>
      <point x="72" y="534" type="curve" smooth="yes"/>
      <point x="72" y="0" type="line"/>
      <point x="152" y="0" type="line"/>
      <point x="152" y="534" type="line" smooth="yes"/>
      <point x="152" y="622"/>
      <point x="209" y="677"/>
      <point x="291" y="677" type="curve" smooth="yes"/>
      <point x="370" y="677"/>
      <point x="422" y="630"/>
      <point x="422" y="554" type="curve" smooth="yes"/>
      <point x="422" y="476"/>
      <point x="354" y="434"/>
      <point x="250" y="423" type="curve"/>
      <point x="250" y="357" type="line"/>
      <point x="384" y="380"/>
      <point x="485" y="319"/>
      <point x="485" y="196" type="curve" smooth="yes"/>
      <point x="485" y="114"/>
      <point x="431" y="61"/>
      <point x="341" y="61" type="curve" smooth="yes"/>
      <point x="307" y="61"/>
      <point x="284" y="64"/>
      <point x="250" y="76" type="curve"/>
      <point x="250" y="3" type="line"/>
      <point x="273" y="-9"/>
      <point x="307" y="-13"/>
    </contour>
  </outline>
</glyph>
<glyph name="ae" format="2">
  <advance width="893"/>
  <unicode hex="00E6"/>
  <anchor x="422" y="0" name="bottom"/>
  <anchor x="629" y="0" name="ogonek"/>
  <anchor x="422" y="490" name="top"/>
  <outline>
    <contour>
      <point x="229" y="-13" type="curve" smooth="yes"/>
      <point x="313" y="-13"/>
      <point x="384" y="33"/>
      <point x="417" y="104" type="curve"/>
      <point x="421" y="104" type="line"/>
      <point x="464" y="31"/>
      <point x="539" y="-13"/>
      <point x="630" y="-13" type="curve" smooth="yes"/>
      <point x="718" y="-13"/>
      <point x="791" y="19"/>
      <point x="837" y="80" type="curve"/>
      <point x="780" y="129" type="line"/>
      <point x="745" y="81"/>
      <point x="699" y="61"/>
      <point x="631" y="61" type="curve" smooth="yes"/>
      <point x="537" y="61"/>
      <point x="462" y="129"/>
      <point x="460" y="233" type="curve"/>
      <point x="460" y="245" type="line"/>
      <point x="459" y="362"/>
      <point x="526" y="429"/>
      <point x="627" y="429" type="curve" smooth="yes"/>
      <point x="733" y="429"/>
      <point x="789" y="361"/>
      <point x="785" y="254" type="curve"/>
      <point x="813" y="293" type="line"/>
      <point x="432" y="293" type="line"/>
      <point x="460" y="223" type="line"/>
      <point x="863" y="223" type="line"/>
      <point x="865" y="232"/>
      <point x="865" y="245"/>
      <point x="865" y="255" type="curve" smooth="yes"/>
      <point x="865" y="406"/>
      <point x="776" y="503"/>
      <point x="629" y="503" type="curve" smooth="yes"/>
      <point x="531" y="503"/>
      <point x="466" y="453"/>
      <point x="438" y="408" type="curve"/>
      <point x="432" y="408" type="line"/>
      <point x="400" y="468"/>
      <point x="336" y="503"/>
      <point x="259" y="503" type="curve" smooth="yes"/>
      <point x="170" y="503"/>
      <point x="108" y="476"/>
      <point x="50" y="413" type="curve"/>
      <point x="104" y="357" type="line"/>
      <point x="147" y="405"/>
      <point x="184" y="429"/>
      <point x="254" y="429" type="curve" smooth="yes"/>
      <point x="349" y="429"/>
      <point x="381" y="362"/>
      <point x="381" y="320" type="curve" smooth="yes"/>
      <point x="381" y="256" type="line"/>
      <point x="394" y="294" type="line"/>
      <point x="260" y="286" type="line" smooth="yes"/>
      <point x="123" y="278"/>
      <point x="47" y="219"/>
      <point x="47" y="132" type="curve" smooth="yes"/>
      <point x="47" y="42"/>
      <point x="131" y="-13"/>
    </contour>
    <contour>
      <point x="238" y="61" type="curve" smooth="yes"/>
      <point x="170" y="61"/>
      <point x="127" y="86"/>
      <point x="127" y="136" type="curve" smooth="yes"/>
      <point x="127" y="181"/>
      <point x="168" y="210"/>
      <point x="265" y="216" type="curve" smooth="yes"/>
      <point x="392" y="224" type="line"/>
      <point x="381" y="241" type="line"/>
      <point x="381" y="211" type="line" smooth="yes"/>
      <point x="381" y="125"/>
      <point x="323" y="61"/>
    </contour>
  </outline>
</glyph>
<glyph name="Dcroat" format="2">
  <advance width="712"/>
  <unicode hex="0110"/>
  <anchor x="319" y="0" name="bottom"/>
  <anchor x="128" y="349" name="center"/>
  <anchor x="337" y="700" name="top"/>
  <outline>
    <contour>
      <point x="14" y="326" type="line"/>
      <point x="367" y="326" type="line"/>
      <point x="367" y="394" type="line"/>
      <point x="14" y="394" type="line"/>
    </contour>
    <component base="D"/>
  </outline>
</glyph>
<glyph name="Lslash" format="2">
  <advance width="529"/>
  <unicode hex="0141"/>
  <anchor x="283" y="0" name="bottom"/>
  <anchor x="308" y="370" name="center"/>
  <anchor x="471" y="0" name="ogonek"/>
  <anchor x="132" y="700" name="top"/>
  <anchor x="298" y="700" name="topright"/>
  <outline>
    <contour>
      <point x="16" y="235" type="line"/>
      <point x="128" y="313" type="line"/>
      <point x="138" y="313" type="line"/>
      <point x="309" y="425" type="line"/>
      <point x="309" y="514" type="line"/>
      <point x="140" y="395" type="line"/>
      <point x="128" y="395" type="line"/>
      <point x="16" y="317" type="line"/>
    </contour>
    <component base="L" xOffset="10"/>
  </outline>
</glyph>
<glyph name="Eng" format="2">
  <advance width="755"/>
  <unicode hex="014A"/>
  <anchor x="385" y="0" name="bottom"/>
  <anchor x="666" y="0" name="ogonek"/>
  <anchor x="376" y="700" name="top"/>
  <outline>
    <contour>
      <point x="494" y="-233" type="curve" smooth="yes"/>
      <point x="607" y="-230"/>
      <point x="673" y="-161"/>
      <point x="673" y="-35" type="curve" smooth="yes"/>
      <point x="673" y="0" type="line"/>
      <point x="592" y="122" type="line"/>
      <point x="592" y="-32" type="line" smooth="yes"/>
      <point x="592" y="-109"/>
      <point x="552" y="-152"/>
      <point x="491" y="-152" type="curve" smooth="yes"/>
      <point x="458" y="-152"/>
      <point x="430" y="-144"/>
      <point x="408" y="-118" type="curve"/>
      <point x="351" y="-186" type="line"/>
      <point x="388" y="-223"/>
      <point x="437" y="-234"/>
    </contour>
    <component base="N"/>
  </outline>
</glyph>
<glyph name="florin" format="2">
  <advance width="614"/>
  <unicode hex="0192"/>
  <outline>
    <contour>
      <point x="45" y="1" type="line"/>
      <point x="74" y="-3"/>
      <point x="104" y="-7"/>
      <point x="133" y="-7" type="curve" smooth="yes"/>
      <point x="227" y="-7"/>
      <point x="284" y="33"/>
      <point x="315" y="172" type="curve" smooth="yes"/>
      <point x="388" y="504" type="line" smooth="yes"/>
      <point x="413" y="618"/>
      <point x="454" y="629"/>
      <point x="508" y="629" type="curve" smooth="yes"/>
      <point x="527" y="629"/>
      <point x="549" y="626"/>
      <point x="570" y="622" type="curve"/>
      <point x="570" y="700" type="line"/>
      <point x="553" y="706"/>
      <point x="532" y="707"/>
      <point x="507" y="707" type="curve" smooth="yes"/>
      <point x="406" y="707"/>
      <point x="339" y="661"/>
      <point x="308" y="521" type="curve" smooth="yes"/>
      <point x="235" y="189" type="line" smooth="yes"/>
      <point x="211" y="80"/>
      <point x="168" y="70"/>
      <point x="122" y="70" type="curve" smooth="yes"/>
      <point x="96" y="70"/>
      <point x="71" y="73"/>
      <point x="45" y="77" type="curve"/>
    </contour>
    <contour>
      <point x="75" y="335" type="line"/>
      <point x="540" y="335" type="line"/>
      <point x="540" y="407" type="line"/>
      <point x="75" y="407" type="line"/>
    </contour>
  </outline>
</glyph>
<glyph name="gravecomb" format="2">
  <unicode hex="0300"/>
  <anchor x="0" y="490" name="_top"/>
  <anchor x="0" y="620" name="top"/>
  <outline>
    <contour>
      <point x="-23" y="547" type="line"/>
      <point x="23" y="547" type="line"/>
      <point x="-4" y="706" type="line"/>
      <point x="-91" y="706" type="line"/>
    </contour>
  </outline>
</glyph>
<glyph name="tildecomb" format="2">
  <unicode hex="0303"/>
  <anchor x="0" y="490" name="_top"/>
  <anchor x="0" y="660" name="top"/>
  <outline>
    <contour>
      <point x="70" y="578" type="curve" smooth="yes"/>
      <point x="122" y="578"/>
      <point x="158" y="617"/>
      <point x="158" y="685" type="curve"/>
      <point x="108" y="685" type="line"/>
      <point x="108" y="650"/>
      <point x="92" y="635"/>
      <point x="70" y="635" type="curve" smooth="yes"/>
      <point x="25" y="635"/>
      <point x="23" y="703"/>
      <point x="-62" y="703" type="curve" smooth="yes"/>
      <point x="-113" y="703"/>
      <point x="-149" y="664"/>
      <point x="-149" y="596" type="curve"/>
      <point x="-101" y="596" type="line"/>
      <point x="-101" y="631"/>
      <point x="-84" y="646"/>
      <point x="-60" y="646" type="curve" smooth="yes"/>
      <point x="-16" y="646"/>
      <point x="-15" y="578"/>
    </contour>
  </outline>
</glyph>
<glyph name="macroncomb" format="2">
  <unicode hex="0304"/>
  <anchor x="0" y="490" name="_top"/>
  <anchor x="0" y="640" name="top"/>
  <outline>
    <contour>
      <point x="-135" y="617" type="line"/>
      <point x="135" y="617" type="line"/>
      <point x="135" y="669" type="line"/>
      <point x="-135" y="669" type="line"/>
    </contour>
  </outline>
</glyph>
<glyph name="brevecomb" format="2">
  <unicode hex="0306"/>
  <anchor x="0" y="490" name="_top"/>
  <anchor x="0" y="630" name="top"/>
  <outline>
    <contour>
      <point x="0" y="553" type="curve" smooth="yes"/>
      <point x="80" y="553"/>
      <point x="135" y="609"/>
      <point x="135" y="686" type="curve"/>
      <point x="72" y="686" type="line"/>
      <point x="74" y="649"/>
      <point x="53" y="608"/>
      <point x="0" y="608" type="curve" smooth="yes"/>
      <point x="-50" y="608"/>
      <point x="-74" y="649"/>
      <point x="-72" y="686" type="curve"/>
      <point x="-135" y="686" type="line"/>
      <point x="-135" y="609"/>
      <point x="-80" y="553"/>
    </contour>
  </outline>
</glyph>
<glyph name="ringcomb" format="2">
  <unicode hex="030A"/>
  <anchor x="0" y="490" name="_top"/>
  <anchor x="0" y="720" name="top"/>
  <outline>
    <contour>
      <point x="0" y="547" type="curve" smooth="yes"/>
      <point x="59" y="547"/>
      <point x="108" y="594"/>
      <point x="108" y="652" type="curve" smooth="yes"/>
      <point x="108" y="710"/>
      <point x="59" y="757"/>
      <point x="0" y="757" type="curve" smooth="yes"/>
      <point x="-58" y="757"/>
      <point x="-108" y="710"/>
      <point x="-108" y="652" type="curve" smooth="yes"/>
      <point x="-108" y="594"/>
      <point x="-58" y="547"/>
    </contour>
    <contour>
      <point x="0" y="594" type="curve" smooth="yes"/>
      <point x="-33" y="594"/>
      <point x="-55" y="620"/>
      <point x="-55" y="652" type="curve" smooth="yes"/>
      <point x="-55" y="686"/>
      <point x="-33" y="709"/>
      <point x="0" y="709" type="curve" smooth="yes"/>
      <point x="33" y="709"/>
      <point x="55" y="686"/>
      <point x="55" y="652" type="curve" smooth="yes"/>
      <point x="55" y="620"/>
      <point x="33" y="594"/>
    </contour>
  </outline>
</glyph>
<glyph name="hungarumlautcomb" format="2">
  <unicode hex="030B"/>
  <anchor x="0" y="490" name="_top"/>
  <anchor x="0" y="670" name="top"/>
  <outline>
    <contour>
      <point x="43" y="547" type="line"/>
      <point x="82" y="547" type="line"/>
      <point x="156" y="706" type="line"/>
      <point x="76" y="706" type="line"/>
    </contour>
    <contour>
      <point x="-82" y="547" type="line"/>
      <point x="-43" y="547" type="line"/>
      <point x="31" y="706" type="line"/>
      <point x="-49" y="706" type="line"/>
    </contour>
  </outline>
</glyph>
<glyph name="breveinvertedcomb" format="2">
  <unicode hex="0311"/>
  <anchor x="0" y="490" name="_top"/>
  <anchor x="0" y="660" name="top"/>
  <outline>
    <contour>
      <point x="-135" y="553" type="curve"/>
      <point x="-72" y="553" type="line"/>
      <point x="-74" y="590"/>
      <point x="-53" y="631"/>
      <point x="0" y="631" type="curve" smooth="yes"/>
      <point x="50" y="631"/>
      <point x="74" y="590"/>
      <point x="72" y="553" type="curve"/>
      <point x="135" y="553" type="line"/>
      <point x="135" y="630"/>
      <point x="80" y="686"/>
      <point x="0" y="686" type="curve" smooth="yes"/>
      <point x="-80" y="686"/>
      <point x="-135" y="630"/>
    </contour>
  </outline>
</glyph>
<glyph name="horncomb" format="2">
  <unicode hex="031B"/>
  <anchor x="180" y="490" name="_topright"/>
  <outline>
    <contour>
      <point x="157" y="421" type="curve" smooth="yes"/>
      <point x="226" y="421"/>
      <point x="286" y="459"/>
      <point x="286" y="535" type="curve" smooth="yes"/>
      <point x="286" y="570"/>
      <point x="281" y="585"/>
      <point x="276" y="600" type="curve"/>
      <point x="204" y="600" type="line"/>
      <point x="211" y="583"/>
      <point x="216" y="565"/>
      <point x="216" y="545" type="curve" smooth="yes"/>
      <point x="216" y="515"/>
      <point x="198" y="488"/>
      <point x="140" y="488" type="curve" smooth="yes"/>
      <point x="101" y="488"/>
      <point x="70" y="503"/>
      <point x="13" y="503" type="curve"/>
      <point x="2" y="436" type="line"/>
      <point x="101" y="436"/>
      <point x="96" y="421"/>
    </contour>
  </outline>
</glyph>
<glyph name="slashlongcomb" format="2">
  <unicode hex="0338"/>
  <anchor x="288" y="264" name="_center"/>
  <outline>
    <contour>
      <point x="19" y="-40" type="line"/>
      <point x="88" y="-40" type="line"/>
      <point x="551" y="560" type="line"/>
      <point x="482" y="560" type="line"/>
    </contour>
  </outline>
</glyph>
<glyph name="Xi" format="2">
  <advance width="539"/>
  <unicode hex="039E"/>
  <outline>
    <contour>
      <point x="71" y="0" type="line"/>
      <point x="468" y="0" type="line"/>
      <point x="468" y="76" type="line"/>
      <point x="71" y="76" type="line"/>
    </contour>
    <contour>
      <point x="76" y="318" type="line"/>
      <point x="461" y="318" type="line"/>
      <point x="461" y="394" type="line"/>
      <point x="76" y="394" type="line"/>
    </contour>
    <contour>
      <point x="71" y="624" type="line"/>
      <point x="466" y="624" type="line"/>
      <point x="466" y="700" type="line"/>
      <point x="71" y="700" type="line"/>
    </contour>
  </outline>
</glyph>
<glyph name="minute" format="2">
  <advance width="282"/>
  <unicode hex="2032"/>
  <outline>
    <contour>
      <point x="92" y="433" type="line"/>
      <point x="143" y="433" type="line"/>
      <point x="215" y="700" type="line"/>
      <point x="104" y="700" type="line"/>
    </contour>
  </outline>
</glyph>
<glyph name="fraction" format="2">
  <advance width="603"/>
  <unicode hex="2044"/>
  <outline>
    <contour>
      <point x="-46" y="0" type="line"/>
      <point x="32" y="0" type="line"/>
      <point x="649" y="700" type="line"/>
      <point x="571" y="700" type="line"/>
    </contour>
  </outline>
</glyph>
<glyph name="colonsign" format="2">
  <advance width="637"/>
  <unicode hex="20A1"/>
  <outline>
    <contour>
      <point x="366" y="27" type="curve" smooth="yes"/>
      <point x="478" y="27"/>
      <point x="563" y="74"/>
      <point x="616" y="138" type="curve"/>
      <point x="560" y="184" type="line"/>
      <point x="497" y="115"/>
      <point x="456" y="99"/>
      <point x="371" y="99" type="curve" smooth="yes"/>
      <point x="200" y="99"/>
      <point x="127" y="251"/>
      <point x="127" y="354" type="curve" smooth="yes"/>
      <point x="127" y="428"/>
      <point x="177" y="601"/>
      <point x="367" y="601" type="curve" smooth="yes"/>
      <point x="446" y="601"/>
      <point x="507" y="577"/>
      <point x="553" y="520" type="curve"/>
      <point x="609" y="569" type="line"/>
      <point x="544" y="641"/>
      <point x="470" y="673"/>
      <point x="366" y="673" type="curve" smooth="yes"/>
      <point x="170" y="673"/>
      <point x="41" y="520"/>
      <point x="41" y="349" type="curve" smooth="yes"/>
      <point x="41" y="179"/>
      <point x="178" y="27"/>
    </contour>
    <contour>
      <point x="424" y="-69" type="line"/>
      <point x="512" y="775" type="line"/>
      <point x="440" y="775" type="line"/>
      <point x="352" y="-69" type="line"/>
    </contour>
    <contour>
      <point x="272" y="-69" type="line"/>
      <point x="360" y="775" type="line"/>
      <point x="288" y="775" type="line"/>
      <point x="200" y="-69" type="line"/>
    </contour>
  </outline>
</glyph>
<glyph name="sheqel" format="2">
  <advance width="583"/>
  <unicode hex="20AA"/>
  <outline>
    <contour>
      <point x="238" y="30" type="line"/>
      <point x="364" y="30" type="line" smooth="yes"/>
      <point x="509" y="30"/>
      <point x="542" y="103"/>
      <point x="542" y="230" type="curve" smooth="yes"/>
      <point x="542" y="459" type="line"/>
      <point x="472" y="459" type="line"/>
      <point x="472" y="231" type="line" smooth="yes"/>
      <point x="472" y="145"/>
      <point x="441" y="106"/>
      <point x="361" y="106" type="curve" smooth="yes"/>
      <point x="238" y="106" type="line"/>
    </contour>
    <contour>
      <point x="42" y="30" type="line"/>
      <point x="112" y="30" type="line"/>
      <point x="112" y="460" type="line"/>
      <point x="42" y="460" type="line"/>
    </contour>
    <contour>
      <point x="187" y="30" type="line"/>
      <point x="257" y="30" type="line"/>
      <point x="257" y="319" type="line"/>
      <point x="187" y="319" type="line"/>
    </contour>
    <contour>
      <point x="326" y="170" type="line"/>
      <point x="397" y="170" type="line"/>
      <point x="397" y="260" type="line" smooth="yes"/>
      <point x="397" y="387"/>
      <point x="377" y="460"/>
      <point x="232" y="460" type="curve" smooth="yes"/>
      <point x="93" y="460" type="line"/>
      <point x="93" y="384" type="line"/>
      <point x="230" y="384" type="line" smooth="yes"/>
      <point x="305" y="384"/>
      <point x="326" y="345"/>
      <point x="326" y="259" type="curve" smooth="yes"/>
    </contour>
  </outline>
</glyph>
<glyph name="kip" format="2">
  <advance width="600"/>
  <unicode hex="20AD"/>
  <anchor x="294.0" y="30.0" name="bottom"/>
  <anchor x="471.0" y="30.0" name="ogonek"/>
  <anchor x="284.0" y="671.9057" name="top"/>
  <outline>
    <contour>
      <point x="0" y="324" type="line"/>
      <point x="590" y="324" type="line"/>
      <point x="590" y="396" type="line"/>
      <point x="0" y="396" type="line"/>
    </contour>
    <component base="K" yScale="0.9157" yOffset="30"/>
  </outline>
</glyph>
<glyph name="ruble" format="2">
  <advance width="556"/>
  <unicode hex="20BD"/>
  <outline>
    <contour>
      <point x="82" y="30" type="line"/>
      <point x="164" y="30" type="line"/>
      <point x="164" y="267" type="line"/>
      <point x="306" y="267" type="line" smooth="yes"/>
      <point x="433" y="267"/>
      <point x="534" y="333"/>
      <point x="534" y="470" type="curve" smooth="yes"/>
      <point x="534" y="606"/>
      <point x="432" y="670"/>
      <point x="306" y="670" type="curve" smooth="yes"/>
      <point x="82" y="670" type="line"/>
    </contour>
    <contour>
      <point x="164" y="343" type="line"/>
      <point x="164" y="594" type="line"/>
      <point x="298" y="594" type="line" smooth="yes"/>
      <point x="388" y="594"/>
      <point x="449" y="562"/>
      <point x="449" y="470" type="curve" smooth="yes"/>
      <point x="449" y="376"/>
      <point x="388" y="343"/>
      <point x="298" y="343" type="curve" smooth="yes"/>
    </contour>
    <contour>
      <point x="20" y="267" type="line"/>
      <point x="183" y="267" type="line"/>
      <point x="183" y="339" type="line"/>
      <point x="20" y="339" type="line"/>
    </contour>
    <contour>
      <point x="20" y="146" type="line"/>
      <point x="428" y="146" type="line"/>
      <point x="427" y="218" type="line"/>
      <point x="20" y="218" type="line"/>
    </contour>
  </outline>
</glyph>
<glyph name="lari" format="2">
  <advance width="691"/>
  <unicode hex="20BE"/>
  <outline>
    <contour>
      <point x="593" y="396" type="curve"/>
      <point x="677" y="396" type="line"/>
      <point x="655" y="557"/>
      <point x="520" y="673"/>
      <point x="362" y="673" type="curve" smooth="yes"/>
      <point x="186" y="673"/>
      <point x="44" y="530"/>
      <point x="44" y="366" type="curve" smooth="yes"/>
      <point x="44" y="243"/>
      <point x="98" y="149"/>
      <point x="206" y="109" type="curve"/>
      <point x="206" y="106" type="line"/>
      <point x="22" y="106" type="line"/>
      <point x="22" y="30" type="line"/>
      <point x="647" y="30" type="line"/>
      <point x="647" y="106" type="line"/>
      <point x="419" y="106" type="line" smooth="yes"/>
      <point x="232" y="106"/>
      <point x="128" y="209"/>
      <point x="128" y="366" type="curve" smooth="yes"/>
      <point x="128" y="500"/>
      <point x="234" y="597"/>
      <point x="362" y="597" type="curve" smooth="yes"/>
      <point x="474" y="597"/>
      <point x="573" y="522"/>
    </contour>
    <contour>
      <point x="387" y="775" type="line"/>
      <point x="387" y="395" type="line"/>
      <point x="457" y="395" type="line"/>
      <point x="457" y="775" type="line"/>
    </contour>
    <contour>
      <point x="266" y="775" type="line"/>
      <point x="266" y="395" type="line"/>
      <point x="336" y="395" type="line"/>
      <point x="336" y="775" type="line"/>
    </contour>
  </outline>
</glyph>
<glyph name="literSign" format="2">
  <advance width="496"/>
  <unicode hex="2113"/>
  <outline>
    <contour>
      <point x="97" y="125"/>
      <point x="149" y="-13"/>
      <point x="313" y="-13" type="curve" smooth="yes"/>
      <point x="397" y="-13"/>
      <point x="454" y="49"/>
      <point x="486" y="133" type="curve"/>
      <point x="440" y="160" type="line"/>
      <point x="410" y="76"/>
      <point x="363" y="56"/>
      <point x="316" y="56" type="curve" smooth="yes"/>
      <point x="200" y="56"/>
      <point x="178" y="177"/>
      <point x="178" y="281" type="curve" smooth="yes"/>
      <point x="178" y="362"/>
      <point x="193" y="456"/>
      <point x="217" y="540" type="curve" smooth="yes"/>
      <point x="237" y="609"/>
      <point x="272" y="640"/>
      <point x="301" y="640" type="curve" smooth="yes"/>
      <point x="357" y="640"/>
      <point x="356" y="559"/>
      <point x="342" y="508" type="curve" smooth="yes"/>
      <point x="293" y="346"/>
      <point x="167" y="251"/>
      <point x="2" y="137" type="curve"/>
      <point x="38" y="90" type="line"/>
      <point x="209" y="208"/>
      <point x="355" y="319"/>
      <point x="410" y="501" type="curve" smooth="yes"/>
      <point x="441" y="599"/>
      <point x="418" y="715"/>
      <point x="302" y="715" type="curve" smooth="yes"/>
      <point x="238" y="715"/>
      <point x="170" y="668"/>
      <point x="139" y="560" type="curve" smooth="yes"/>
      <point x="115" y="475"/>
      <point x="97" y="375"/>
      <point x="97" y="283" type="curve" smooth="yes"/>
    </contour>
  </outline>
</glyph>
<glyph name="lessequal" format="2">
  <advance width="596"/>
  <unicode hex="2264"/>
  <outline>
    <contour>
      <point x="531" y="220" type="line"/>
      <point x="531" y="305" type="line"/>
      <point x="225" y="427" type="line"/>
      <point x="225" y="431" type="line"/>
      <point x="531" y="555" type="line"/>
      <point x="531" y="640" type="line"/>
      <point x="52" y="430" type="line"/>
    </contour>
    <contour>
      <point x="79" y="100" type="line"/>
      <point x="531" y="100" type="line"/>
      <point x="531" y="172" type="line"/>
      <point x="79" y="172" type="line"/>
    </contour>
  </outline>
</glyph>
<glyph name="upWhiteTriangle" format="2">
  <advance width="862"/>
  <unicode hex="25B3"/>
  <outline>
    <contour>
      <point x="842" y="0" type="line"/>
      <point x="431" y="713" type="line"/>
      <point x="20" y="0" type="line"/>
    </contour>
    <contour>
      <point x="151" y="76" type="line"/>
      <point x="431" y="562" type="line"/>
      <point x="712" y="76" type="line"/>
    </contour>
  </outline>
</glyph>
<glyph name="upBlackSmallTriangle" format="2">
  <advance width="287"/>
  <unicode hex="25B4"/>
  <outline>
    <contour>
      <point x="45" y="292" type="line"/>
      <point x="242" y="292" type="line"/>
      <point x="143" y="463" type="line"/>
    </contour>
  </outline>
</glyph>
<glyph name="rightBlackSmallTriangle" format="2">
  <advance width="291"/>
  <unicode hex="25B8"/>
  <outline>
    <contour>
      <point x="90" y="261" type="line"/>
      <point x="261" y="360" type="line"/>
      <point x="90" y="458" type="line"/>
    </contour>
  </outline>
</glyph>
<glyph name="dottedCircle" format="2">
  <advance width="640"/>
  <unicode hex="25CC"/>
  <outline>
    <contour>
      <point x="334" y="22" type="curve" smooth="yes"/>
      <point x="334" y="8"/>
      <point x="323" y="-3"/>
      <point x="309" y="-3" type="curve" smooth="yes"/>
      <point x="295" y="-3"/>
      <point x="284" y="8"/>
      <point x="284" y="22" type="curve" smooth="yes"/>
      <point x="284" y="36"/>
      <point x="295" y="47"/>
      <point x="309" y="47" type="curve" smooth="yes"/>
      <point x="323" y="47"/>
      <point x="334" y="36"/>
    </contour>
    <contour>
      <point x="437" y="38" type="curve" smooth="yes"/>
      <point x="437" y="24"/>
      <point x="425" y="13"/>
      <point x="411" y="13" type="curve" smooth="yes"/>
      <point x="397" y="13"/>
      <point x="386" y="24"/>
      <point x="386" y="38" type="curve" smooth="yes"/>
      <point x="386" y="52"/>
      <point x="397" y="63"/>
      <point x="411" y="63" type="curve" smooth="yes"/>
      <point x="425" y="63"/>
      <point x="437" y="52"/>
    </contour>
    <contour>
      <point x="525" y="92" type="curve" smooth="yes"/>
      <point x="525" y="78"/>
      <point x="514" y="67"/>
      <point x="500" y="67" type="curve" smooth="yes"/>
      <point x="486" y="67"/>
      <point x="474" y="78"/>
      <point x="474" y="92" type="curve" smooth="yes"/>
      <point x="474" y="106"/>
      <point x="486" y="117"/>
      <point x="500" y="117" type="curve" smooth="yes"/>
      <point x="514" y="117"/>
      <point x="525" y="106"/>
    </contour>
    <contour>
      <point x="586" y="175" type="curve" smooth="yes"/>
      <point x="586" y="161"/>
      <point x="575" y="150"/>
      <point x="561" y="150" type="curve" smooth="yes"/>
      <point x="547" y="150"/>
      <point x="535" y="161"/>
      <point x="535" y="175" type="curve" smooth="yes"/>
      <point x="535" y="189"/>
      <point x="547" y="201"/>
      <point x="561" y="201" type="curve" smooth="yes"/>
      <point x="575" y="201"/>
      <point x="586" y="189"/>
    </contour>
    <contour>
      <point x="610" y="276" type="curve" smooth="yes"/>
      <point x="610" y="262"/>
      <point x="599" y="250"/>
      <point x="585" y="250" type="curve" smooth="yes"/>
      <point x="571" y="250"/>
      <point x="560" y="262"/>
      <point x="560" y="276" type="curve" smooth="yes"/>
      <point x="560" y="290"/>
      <point x="571" y="301"/>
      <point x="585" y="301" type="curve" smooth="yes"/>
      <point x="599" y="301"/>
      <point x="610" y="290"/>
    </contour>
    <contour>
      <point x="594" y="378" type="curve" smooth="yes"/>
      <point x="594" y="364"/>
      <point x="583" y="353"/>
      <point x="569" y="353" type="curve" smooth="yes"/>
      <point x="555" y="353"/>
      <point x="544" y="364"/>
      <point x="544" y="378" type="curve" smooth="yes"/>
      <point x="544" y="392"/>
      <point x="555" y="403"/>
      <point x="569" y="403" type="curve" smooth="yes"/>
      <point x="583" y="403"/>
      <point x="594" y="392"/>
    </contour>
    <contour>
      <point x="541" y="466" type="curve" smooth="yes"/>
      <point x="541" y="452"/>
      <point x="529" y="441"/>
      <point x="515" y="441" type="curve" smooth="yes"/>
      <point x="501" y="441"/>
      <point x="490" y="452"/>
      <point x="490" y="466" type="curve" smooth="yes"/>
      <point x="490" y="480"/>
      <point x="501" y="492"/>
      <point x="515" y="492" type="curve" smooth="yes"/>
      <point x="529" y="492"/>
      <point x="541" y="480"/>
    </contour>
    <contour>
      <point x="457" y="527" type="curve" smooth="yes"/>
      <point x="457" y="513"/>
      <point x="446" y="502"/>
      <point x="432" y="502" type="curve" smooth="yes"/>
      <point x="418" y="502"/>
      <point x="406" y="513"/>
      <point x="406" y="527" type="curve" smooth="yes"/>
      <point x="406" y="541"/>
      <point x="418" y="552"/>
      <point x="432" y="552" type="curve" smooth="yes"/>
      <point x="446" y="552"/>
      <point x="457" y="541"/>
    </contour>
    <contour>
      <point x="356" y="551" type="curve" smooth="yes"/>
      <point x="356" y="537"/>
      <point x="344" y="526"/>
      <point x="331" y="526" type="curve" smooth="yes"/>
      <point x="317" y="526"/>
      <point x="306" y="537"/>
      <point x="306" y="551" type="curve" smooth="yes"/>
      <point x="306" y="565"/>
      <point x="317" y="577"/>
      <point x="331" y="577" type="curve" smooth="yes"/>
      <point x="344" y="577"/>
      <point x="356" y="565"/>
    </contour>
    <contour>
      <point x="255" y="536" type="curve" smooth="yes"/>
      <point x="255" y="522"/>
      <point x="243" y="510"/>
      <point x="229" y="510" type="curve" smooth="yes"/>
      <point x="215" y="510"/>
      <point x="204" y="522"/>
      <point x="204" y="536" type="curve" smooth="yes"/>
      <point x="204" y="550"/>
      <point x="215" y="561"/>
      <point x="229" y="561" type="curve" smooth="yes"/>
      <point x="243" y="561"/>
      <point x="255" y="550"/>
    </contour>
    <contour>
      <point x="166" y="482" type="curve" smooth="yes"/>
      <point x="166" y="468"/>
      <point x="155" y="456"/>
      <point x="141" y="456" type="curve" smooth="yes"/>
      <point x="127" y="456"/>
      <point x="116" y="468"/>
      <point x="116" y="482" type="curve" smooth="yes"/>
      <point x="116" y="496"/>
      <point x="127" y="507"/>
      <point x="141" y="507" type="curve" smooth="yes"/>
      <point x="155" y="507"/>
      <point x="166" y="496"/>
    </contour>
    <contour>
      <point x="105" y="398" type="curve" smooth="yes"/>
      <point x="105" y="384"/>
      <point x="94" y="373"/>
      <point x="80" y="373" type="curve" smooth="yes"/>
      <point x="66" y="373"/>
      <point x="55" y="384"/>
      <point x="55" y="398" type="curve" smooth="yes"/>
      <point x="55" y="412"/>
      <point x="66" y="424"/>
      <point x="80" y="424" type="curve" smooth="yes"/>
      <point x="94" y="424"/>
      <point x="105" y="412"/>
    </contour>
    <contour>
      <point x="81" y="298" type="curve" smooth="yes"/>
      <point x="81" y="284"/>
      <point x="70" y="273"/>
      <point x="56" y="273" type="curve" smooth="yes"/>
      <point x="42" y="273"/>
      <point x="30" y="284"/>
      <point x="30" y="298" type="curve" smooth="yes"/>
      <point x="30" y="312"/>
      <point x="42" y="323"/>
      <point x="56" y="323" type="curve" smooth="yes"/>
      <point x="70" y="323"/>
      <point x="81" y="312"/>
    </contour>
    <contour>
      <point x="97" y="196" type="curve" smooth="yes"/>
      <point x="97" y="182"/>
      <point x="86" y="170"/>
      <point x="72" y="170" type="curve" smooth="yes"/>
      <point x="58" y="170"/>
      <point x="46" y="182"/>
      <point x="46" y="196" type="curve" smooth="yes"/>
      <point x="46" y="210"/>
      <point x="58" y="221"/>
      <point x="72" y="221" type="curve" smooth="yes"/>
      <point x="86" y="221"/>
      <point x="97" y="210"/>
    </contour>
    <contour>
      <point x="151" y="107" type="curve" smooth="yes"/>
      <point x="151" y="93"/>
      <point x="139" y="82"/>
      <point x="125" y="82" type="curve" smooth="yes"/>
      <point x="111" y="82"/>
      <point x="100" y="93"/>
      <point x="100" y="107" type="curve" smooth="yes"/>
      <point x="100" y="121"/>
      <point x="111" y="133"/>
      <point x="125" y="133" type="curve" smooth="yes"/>
      <point x="139" y="133"/>
      <point x="151" y="121"/>
    </contour>
    <contour>
      <point x="234" y="47" type="curve" smooth="yes"/>
      <point x="234" y="33"/>
      <point x="223" y="21"/>
      <point x="209" y="21" type="curve" smooth="yes"/>
      <point x="195" y="21"/>
      <point x="183" y="33"/>
      <point x="183" y="47" type="curve" smooth="yes"/>
      <point x="183" y="61"/>
      <point x="195" y="72"/>
      <point x="209" y="72" type="curve" smooth="yes"/>
      <point x="223" y="72"/>
      <point x="234" y="61"/>
    </contour>
  </outline>
</glyph>
<glyph name="blackCircle" format="2">
  <advance width="786"/>
  <unicode hex="25CF"/>
  <outline>
    <contour>
      <point x="394" y="-13" type="curve" smooth="yes"/>
      <point x="593" y="-13"/>
      <point x="756" y="149"/>
      <point x="756" y="350" type="curve" smooth="yes"/>
      <point x="756" y="549"/>
      <point x="593" y="713"/>
      <point x="394" y="713" type="curve" smooth="yes"/>
      <point x="194" y="713"/>
      <point x="30" y="549"/>
      <point x="30" y="350" type="curve" smooth="yes"/>
      <point x="30" y="149"/>
      <point x="194" y="-13"/>
    </contour>
  </outline>
</glyph>
<glyph name="ballotBoxWithCheck" format="2">
  <advance width="890"/>
  <unicode hex="2611"/>
  <outline>
    <contour>
      <point x="356" y="156" type="line"/>
      <point x="396" y="210" type="line"/>
      <point x="261" y="355" type="line"/>
      <point x="213" y="309" type="line"/>
    </contour>
    <contour>
      <point x="356" y="156" type="line"/>
      <point x="681" y="506" type="line"/>
      <point x="632" y="552" type="line"/>
      <point x="317" y="213" type="line"/>
    </contour>
    <component base="whiteSquare"/>
  </outline>
</glyph>
<glyph name="heavyCheckMark" format="2">
  <advance width="600"/>
  <unicode hex="2714"/>
  <outline>
    <contour>
      <point x="200" y="182" type="curve" smooth="yes"/>
      <point x="223" y="163"/>
      <point x="253" y="151"/>
      <point x="288" y="184" type="curve" smooth="yes"/>
      <point x="361" y="251"/>
      <point x="472" y="456"/>
      <point x="536" y="578" type="curve" smooth="yes"/>
      <point x="545" y="595"/>
      <point x="522" y="604"/>
      <point x="512" y="589" type="curve" smooth="yes"/>
      <point x="418" y="444"/>
      <point x="321" y="312"/>
      <point x="271" y="254" type="curve" smooth="yes"/>
      <point x="257" y="238"/>
      <point x="246" y="241"/>
      <point x="228" y="255" type="curve" smooth="yes"/>
      <point x="187" y="287"/>
      <point x="152" y="336"/>
      <point x="124" y="377" type="curve" smooth="yes"/>
      <point x="109" y="397"/>
      <point x="88" y="394"/>
      <point x="77" y="369" type="curve" smooth="yes"/>
      <point x="70" y="352"/>
      <point x="70" y="327"/>
      <point x="78" y="315" type="curve" smooth="yes"/>
      <point x="103" y="271"/>
      <point x="153" y="221"/>
    </contour>
  </outline>
</glyph>
<glyph name="heavyBallotX" format="2">
  <advance width="600"/>
  <unicode hex="2718"/>
  <outline>
    <contour>
      <point x="154" y="158" type="curve" smooth="yes"/>
      <point x="239" y="235"/>
      <point x="421" y="468"/>
      <point x="458" y="574" type="curve" smooth="yes"/>
      <point x="466" y="597"/>
      <point x="449" y="607"/>
      <point x="437" y="590" type="curve" smooth="yes"/>
      <point x="337" y="449"/>
      <point x="177" y="249"/>
      <point x="128" y="174" type="curve" smooth="yes"/>
      <point x="113" y="151"/>
      <point x="133" y="139"/>
    </contour>
    <contour>
      <point x="418" y="176" type="curve" smooth="yes"/>
      <point x="433" y="156"/>
      <point x="454" y="159"/>
      <point x="465" y="184" type="curve" smooth="yes"/>
      <point x="472" y="201"/>
      <point x="472" y="226"/>
      <point x="464" y="238" type="curve" smooth="yes"/>
      <point x="439" y="282"/>
      <point x="228" y="535"/>
      <point x="200" y="576" type="curve" smooth="yes"/>
      <point x="185" y="596"/>
      <point x="164" y="593"/>
      <point x="153" y="568" type="curve" smooth="yes"/>
      <point x="146" y="551"/>
      <point x="146" y="526"/>
      <point x="154" y="514" type="curve" smooth="yes"/>
      <point x="179" y="470"/>
      <point x="390" y="217"/>
    </contour>
  </outline>
</glyph>
<glyph name="rightanglebracket-math" format="2">
  <advance width="290"/>
  <unicode hex="27E9"/>
  <outline>
    <contour>
      <point x="47" y="-220" type="line"/>
      <point x="110" y="-220" type="line"/>
      <point x="280" y="240" type="line"/>
      <point x="110" y="700" type="line"/>
      <point x="48" y="700" type="line"/>
      <point x="217" y="238" type="line"/>
      <point x="217" y="233" type="line"/>
    </contour>
  </outline>
</glyph>
<glyph name="whiteSmallStar" format="2">
  <advance width="480"/>
  <unicode hex="2B52"/>
  <outline>
    <contour>
      <point x="116" y="199" type="line"/>
      <point x="239" y="289" type="line"/>
      <point x="363" y="199" type="line"/>
      <point x="316" y="344" type="line"/>
      <point x="440" y="434" type="line"/>
      <point x="287" y="434" type="line"/>
      <point x="239" y="579" type="line"/>
      <point x="192" y="434" type="line"/>
      <point x="40" y="434" type="line"/>
      <point x="163" y="344" type="line"/>
    </contour>
    <contour>
      <point x="166" y="269" type="line"/>
      <point x="194" y="356" type="line"/>
      <point x="120" y="410" type="line"/>
      <point x="211" y="410" type="line"/>
      <point x="239" y="497" type="line"/>
      <point x="268" y="410" type="line"/>
      <point x="359" y="410" type="line"/>
      <point x="285" y="356" type="line"/>
      <point x="313" y="269" type="line"/>
      <point x="239" y="323" type="line"/>
    </contour>
  </outline>
</glyph>
<glyph name="Saltillo" format="2">
  <advance width="238"/>
  <unicode hex="A78B"/>
  <outline>
    <contour>
      <point x="97" y="193" type="line"/>
      <point x="141" y="193" type="line"/>
      <point x="164" y="577" type="line"/>
      <point x="164" y="700" type="line"/>
      <point x="74" y="700" type="line"/>
      <point x="74" y="577" type="line"/>
    </contour>
  </outline>
</glyph>
<glyph name="acutecomb.case" format="2">
  <anchor x="0" y="700" name="_top"/>
  <anchor x="0" y="820" name="top"/>
  <outline>
    <contour>
      <point x="-26" y="740" type="line"/>
      <point x="26" y="740" type="line"/>
      <point x="114" y="853" type="line"/>
      <point x="19" y="853" type="line"/>
    </contour>
  </outline>
</glyph>
<glyph name="circumflexcomb.case" format="2">
  <anchor x="0" y="700" name="_top"/>
  <anchor x="1" y="857" name="top"/>
  <outline>
    <contour>
      <point x="-142" y="740" type="line"/>
      <point x="-63" y="740" type="line"/>
      <point x="1" y="807" type="line"/>
      <point x="3" y="807" type="line"/>
      <point x="65" y="740" type="line"/>
      <point x="142" y="740" type="line"/>
      <point x="27" y="859" type="line"/>
      <point x="-23" y="859" type="line"/>
    </contour>
  </outline>
</glyph>
<glyph name="comma.ss04" format="2">
  <advance width="202"/>
  <outline>
    <contour>
      <point x="68" y="113" type="line"/>
      <point x="62" y="50" type="line" smooth="yes"/>
      <point x="51" y="-49"/>
      <point x="30" y="-116"/>
      <point x="4" y="-164" type="curve"/>
      <point x="29" y="-180" type="line"/>
      <point x="89" y="-139"/>
      <point x="118" y="-66"/>
      <point x="140" y="50" type="curve" smooth="yes"/>
      <point x="150" y="103" type="line"/>
    </contour>
  </outline>
</glyph>
<glyph name="commaaccentcomb.loclMAH" format="2">
  <anchor x="0" y="0" name="_bottom"/>
  <outline>
    <contour>
      <point x="14" y="-221" type="curve" smooth="yes"/>
      <point x="76" y="-221"/>
      <point x="127" y="-182"/>
      <point x="127" y="-126" type="curve" smooth="yes"/>
      <point x="127" y="-58"/>
      <point x="61" y="-31"/>
      <point x="1" y="-45" type="curve"/>
      <point x="-16" y="-88" type="line"/>
      <point x="-13" y="-91" type="line"/>
      <point x="-6" y="-89"/>
      <point x="2" y="-88"/>
      <point x="12" y="-88" type="curve" smooth="yes"/>
      <point x="42" y="-88"/>
      <point x="64" y="-101"/>
      <point x="64" y="-126" type="curve" smooth="yes"/>
      <point x="64" y="-147"/>
      <point x="50" y="-166"/>
      <point x="14" y="-166" type="curve" smooth="yes"/>
      <point x="-9" y="-166"/>
      <point x="-29" y="-157"/>
      <point x="-45" y="-139" type="curve"/>
      <point x="-77" y="-184" type="line"/>
      <point x="-54" y="-208"/>
      <point x="-23" y="-221"/>
    </contour>
  </outline>
</glyph>
<glyph name="eight.numr" format="2">
  <advance width="316"/>
  <outline>
    <contour>
      <point x="158" y="308" type="curve" smooth="yes"/>
      <point x="227" y="308"/>
      <point x="283" y="353"/>
      <point x="283" y="422" type="curve" smooth="yes"/>
      <point x="283" y="472"/>
      <point x="251" y="503"/>
      <point x="221" y="514" type="curve"/>
      <point x="221" y="516" type="line"/>
      <point x="254" y="530"/>
      <point x="273" y="566"/>
      <point x="273" y="601" type="curve" smooth="yes"/>
      <point x="273" y="664"/>
      <point x="229" y="706"/>
      <point x="158" y="706" type="curve" smooth="yes"/>
      <point x="78" y="706"/>
      <point x="42" y="656"/>
      <point x="42" y="598" type="curve" smooth="yes"/>
      <point x="42" y="564"/>
      <point x="63" y="530"/>
      <point x="96" y="516" type="curve"/>
      <point x="96" y="514" type="line"/>
      <point x="65" y="502"/>
      <point x="33" y="471"/>
      <point x="33" y="421" type="curve" smooth="yes"/>
      <point x="33" y="347"/>
      <point x="90" y="308"/>
    </contour>
    <contour>
      <point x="158" y="356" type="curve" smooth="yes"/>
      <point x="117" y="356"/>
      <point x="87" y="386"/>
      <point x="87" y="424" type="curve" smooth="yes"/>
      <point x="87" y="464"/>
      <point x="118" y="490"/>
      <point x="158" y="490" type="curve" smooth="yes"/>
      <point x="204" y="490"/>
      <point x="228" y="461"/>
      <point x="228" y="423" type="curve" smooth="yes"/>
      <point x="228" y="383"/>
      <point x="197" y="356"/>
    </contour>
    <contour>
      <point x="159" y="537" type="curve" smooth="yes"/>
      <point x="122" y="537"/>
      <point x="96" y="568"/>
      <point x="96" y="598" type="curve" smooth="yes"/>
      <point x="96" y="635"/>
      <point x="123" y="658"/>
      <point x="158" y="658" type="curve" smooth="yes"/>
      <point x="190" y="658"/>
      <point x="219" y="636"/>
      <point x="219" y="597" type="curve" smooth="yes"/>
      <point x="219" y="562"/>
      <point x="200" y="537"/>
    </contour>
  </outline>
</glyph>
<glyph name="euro.tf" format="2">
  <advance width="596"/>
  <outline>
    <contour>
      <point x="372" y="17" type="curve" smooth="yes"/>
      <point x="459" y="17"/>
      <point x="538" y="52"/>
      <point x="593" y="107" type="curve"/>
      <point x="543" y="157" type="line"/>
      <point x="499" y="115"/>
      <point x="442" y="89"/>
      <point x="377" y="89" type="curve" smooth="yes"/>
      <point x="285" y="89"/>
      <point x="175" y="147"/>
      <point x="157" y="283" type="curve" smooth="yes"/>
      <point x="155" y="304" type="line"/>
      <point x="151" y="344"/>
      <point x="150" y="360"/>
      <point x="154" y="400" type="curve"/>
      <point x="157" y="422" type="line" smooth="yes"/>
      <point x="176" y="565"/>
      <point x="285" y="611"/>
      <point x="373" y="611" type="curve" smooth="yes"/>
      <point x="443" y="611"/>
      <point x="476" y="594"/>
      <point x="537" y="547" type="curve"/>
      <point x="584" y="606" type="line"/>
      <point x="521" y="658"/>
      <point x="467" y="683"/>
      <point x="372" y="683" type="curve" smooth="yes"/>
      <point x="180" y="683"/>
      <point x="68" y="530"/>
      <point x="68" y="349" type="curve" smooth="yes"/>
      <point x="68" y="169"/>
      <point x="188" y="17"/>
    </contour>
    <contour>
      <point x="-25" y="243" type="line"/>
      <point x="384" y="243" type="line"/>
      <point x="425" y="315" type="line"/>
      <point x="24" y="315" type="line"/>
    </contour>
    <contour>
      <point x="-28" y="385" type="line"/>
      <point x="464" y="385" type="line"/>
      <point x="506" y="457" type="line"/>
      <point x="22" y="457" type="line"/>
    </contour>
  </outline>
</glyph>
<glyph name="f_f_i.ss11" format="2">
  <advance width="886"/>
  <anchor x="787" y="0" name="bottom_1"/>
  <anchor x="749" y="0" name="ogonek_1"/>
  <anchor x="787" y="490" name="top_1"/>
  <anchor x="369" y="0" name="caret_1"/>
  <anchor x="685" y="0" name="caret_2"/>
  <outline>
    <contour>
      <point x="117" y="0" type="line"/>
      <point x="197" y="0" type="line"/>
      <point x="197" y="546" type="line" smooth="yes"/>
      <point x="197" y="628"/>
      <point x="234" y="679"/>
      <point x="315" y="679" type="curve" smooth="yes"/>
      <point x="391" y="679"/>
      <point x="432" y="628"/>
      <point x="432" y="546" type="curve" smooth="yes"/>
      <point x="432" y="0" type="line"/>
      <point x="512" y="0" type="line"/>
      <point x="512" y="546" type="line" smooth="yes"/>
      <point x="512" y="628"/>
      <point x="549" y="679"/>
      <point x="630" y="679" type="curve" smooth="yes"/>
      <point x="706" y="679"/>
      <point x="747" y="628"/>
      <point x="747" y="546" type="curve"/>
      <point x="827" y="546" type="line"/>
      <point x="827" y="666"/>
      <point x="746" y="753"/>
      <point x="630" y="753" type="curve" smooth="yes"/>
      <point x="560" y="753"/>
      <point x="497" y="717"/>
      <point x="474" y="656" type="curve"/>
      <point x="468" y="656" type="line"/>
      <point x="444" y="718"/>
      <point x="381" y="753"/>
      <point x="315" y="753" type="curve" smooth="yes"/>
      <point x="194" y="753"/>
      <point x="117" y="666"/>
      <point x="117" y="550" type="curve" smooth="yes"/>
    </contour>
    <contour>
      <point x="17" y="418" type="line"/>
      <point x="675" y="418" type="line"/>
      <point x="675" y="490" type="line"/>
      <point x="17" y="490" type="line"/>
    </contour>
    <component base="idotless" xOffset="675"/>
  </outline>
</glyph>
<glyph name="five.numr" format="2">
  <advance width="330"/>
  <outline>
    <contour>
      <point x="157" y="308" type="curve" smooth="yes"/>
      <point x="231" y="308"/>
      <point x="289" y="361"/>
      <point x="289" y="435" type="curve" smooth="yes"/>
      <point x="289" y="499"/>
      <point x="236" y="555"/>
      <point x="168" y="555" type="curve" smooth="yes"/>
      <point x="153" y="555"/>
      <point x="137" y="552"/>
      <point x="125" y="548" type="curve"/>
      <point x="123" y="549" type="line"/>
      <point x="148" y="680" type="line"/>
      <point x="113" y="652" type="line"/>
      <point x="266" y="652" type="line"/>
      <point x="266" y="700" type="line"/>
      <point x="99" y="700" type="line"/>
      <point x="54" y="472" type="line"/>
      <point x="88" y="494"/>
      <point x="107" y="505"/>
      <point x="154" y="505" type="curve" smooth="yes"/>
      <point x="200" y="505"/>
      <point x="237" y="477"/>
      <point x="237" y="433" type="curve" smooth="yes"/>
      <point x="237" y="384"/>
      <point x="199" y="356"/>
      <point x="158" y="356" type="curve" smooth="yes"/>
      <point x="120" y="356"/>
      <point x="94" y="371"/>
      <point x="69" y="398" type="curve"/>
      <point x="35" y="361" type="line"/>
      <point x="63" y="325"/>
      <point x="109" y="308"/>
    </contour>
  </outline>
</glyph>
<glyph name="guarani.tf.ss02" format="2">
  <advance width="596"/>
  <anchor x="320" y="653" name="_TopCurrency"/>
  <outline>
    <contour>
      <point x="326" y="31" type="curve" smooth="yes"/>
      <point x="428" y="31"/>
      <point x="512" y="69"/>
      <point x="578" y="133" type="curve"/>
      <point x="578" y="371" type="line"/>
      <point x="290" y="371" type="line"/>
      <point x="290" y="303" type="line"/>
      <point x="537" y="303" type="line"/>
      <point x="502" y="326" type="line"/>
      <point x="502" y="118" type="line"/>
      <point x="524" y="182" type="line"/>
      <point x="466" y="129"/>
      <point x="410" y="101"/>
      <point x="327" y="101" type="curve" smooth="yes"/>
      <point x="191" y="101"/>
      <point x="95" y="215"/>
      <point x="95" y="354" type="curve" smooth="yes"/>
      <point x="95" y="493"/>
      <point x="182" y="609"/>
      <point x="321" y="609" type="curve" smooth="yes"/>
      <point x="398" y="609"/>
      <point x="437" y="590"/>
      <point x="480" y="529" type="curve"/>
      <point x="540" y="575" type="line"/>
      <point x="477" y="654"/>
      <point x="423" y="679"/>
      <point x="320" y="679" type="curve" smooth="yes"/>
      <point x="141" y="679"/>
      <point x="13" y="534"/>
      <point x="13" y="354" type="curve" smooth="yes"/>
      <point x="13" y="175"/>
      <point x="145" y="31"/>
    </contour>
    <component base="verticalTopCurrencycomb" xOffset="320"/>
    <component base="verticalBottomCurrencycomb" xOffset="320"/>
  </outline>
</glyph>
<glyph name="hookabovecombviet" format="2">
  <advance width="300"/>
  <anchor x="0" y="490" name="_top"/>
  <anchor x="0" y="662" name="top"/>
  <outline>
    <contour>
      <point x="-25" y="562" type="curve"/>
      <point x="1" y="521" type="line"/>
      <point x="39" y="540"/>
      <point x="62" y="562"/>
      <point x="62" y="608" type="curve" smooth="yes"/>
      <point x="62" y="659"/>
      <point x="20" y="696"/>
      <point x="-44" y="696" type="curve" smooth="yes"/>
      <point x="-78" y="696"/>
      <point x="-99" y="690"/>
      <point x="-121" y="676" type="curve"/>
      <point x="-95" y="624" type="line"/>
      <point x="-83" y="632"/>
      <point x="-66" y="637"/>
      <point x="-50" y="637" type="curve" smooth="yes"/>
      <point x="-17" y="637"/>
      <point x="6" y="623"/>
      <point x="6" y="599" type="curve" smooth="yes"/>
      <point x="6" y="580"/>
      <point x="-3" y="569"/>
    </contour>
  </outline>
</glyph>
<glyph name="horncomb.case" format="2">
  <anchor x="180" y="700" name="_topright"/>
  <outline>
    <contour>
      <point x="182" y="625" type="curve" smooth="yes"/>
      <point x="251" y="625"/>
      <point x="311" y="669"/>
      <point x="311" y="745" type="curve" smooth="yes"/>
      <point x="311" y="780"/>
      <point x="306" y="795"/>
      <point x="301" y="810" type="curve"/>
      <point x="225" y="810" type="line"/>
      <point x="232" y="793"/>
      <point x="237" y="775"/>
      <point x="237" y="755" type="curve" smooth="yes"/>
      <point x="237" y="725"/>
      <point x="219" y="692"/>
      <point x="165" y="692" type="curve" smooth="yes"/>
      <point x="126" y="692"/>
      <point x="32" y="713"/>
      <point x="-25" y="713" type="curve"/>
      <point x="-25" y="646" type="line"/>
      <point x="106" y="646"/>
      <point x="121" y="625"/>
    </contour>
  </outline>
</glyph>
<glyph name="hungarumlautcomb.case" format="2">
  <anchor x="0" y="700" name="_top"/>
  <outline>
    <contour>
      <point x="33" y="740" type="line"/>
      <point x="85" y="740" type="line"/>
      <point x="173" y="853" type="line"/>
      <point x="75" y="853" type="line"/>
    </contour>
    <contour>
      <point x="-85" y="740" type="line"/>
      <point x="-33" y="740" type="line"/>
      <point x="55" y="853" type="line"/>
      <point x="-43" y="853" type="line"/>
    </contour>
  </outline>
</glyph>
<glyph name="macroncomb.case" format="2">
  <anchor x="0" y="700" name="_top"/>
  <anchor x="0" y="773" name="top"/>
  <outline>
    <contour>
      <point x="-132" y="740" type="line"/>
      <point x="133" y="740" type="line"/>
      <point x="133" y="792" type="line"/>
      <point x="-132" y="792" type="line"/>
    </contour>
  </outline>
</glyph>
<glyph name="micro.ss10" format="2">
  <advance width="546"/>
  <outline>
    <contour>
      <point x="72" y="-220" type="line"/>
      <point x="152" y="-220" type="line"/>
      <point x="152" y="35" type="line"/>
      <point x="155" y="35" type="line"/>
      <point x="187" y="4"/>
      <point x="232" y="-12"/>
      <point x="285" y="-12" type="curve" smooth="yes"/>
      <point x="401" y="-12"/>
      <point x="479" y="65"/>
      <point x="479" y="205" type="curve" smooth="yes"/>
      <point x="479" y="490" type="line"/>
      <point x="400" y="490" type="line"/>
      <point x="400" y="205" type="line" smooth="yes"/>
      <point x="400" y="110"/>
      <point x="357" y="61"/>
      <point x="276" y="61" type="curve" smooth="yes"/>
      <point x="195" y="61"/>
      <point x="152" y="110"/>
      <point x="152" y="205" type="curve" smooth="yes"/>
      <point x="152" y="490" type="line"/>
      <point x="72" y="490" type="line"/>
    </contour>
  </outline>
</glyph>
<glyph name="naira.tf" format="2">
  <advance width="596"/>
  <outline>
    <contour>
      <point x="82" y="30" type="line"/>
      <point x="163" y="30" type="line"/>
      <point x="163" y="398" type="line" smooth="yes"/>
      <point x="163" y="453"/>
      <point x="161" y="488"/>
      <point x="157" y="509" type="curve"/>
      <point x="160" y="509" type="line"/>
      <point x="164" y="498"/>
      <point x="184" y="481"/>
      <point x="201" y="452" type="curve" smooth="yes"/>
      <point x="444" y="30" type="line"/>
      <point x="514" y="30" type="line"/>
      <point x="514" y="670" type="line"/>
      <point x="433" y="670" type="line"/>
      <point x="433" y="309" type="line" smooth="yes"/>
      <point x="433" y="242"/>
      <point x="435" y="214"/>
      <point x="440" y="195" type="curve"/>
      <point x="436" y="195" type="line"/>
      <point x="433" y="206"/>
      <point x="419" y="233"/>
      <point x="404" y="258" type="curve" smooth="yes"/>
      <point x="156" y="670" type="line"/>
      <point x="82" y="670" type="line"/>
    </contour>
    <contour>
      <point x="0" y="324" type="line"/>
      <point x="596" y="324" type="line"/>
      <point x="596" y="396" type="line"/>
      <point x="0" y="396" type="line"/>
    </contour>
  </outline>
</glyph>
<glyph name="nine.numr" format="2">
  <advance width="318"/>
  <outline>
    <contour>
      <point x="88" y="313" type="line"/>
      <point x="151" y="313" type="line"/>
      <point x="248" y="476" type="line" smooth="yes"/>
      <point x="268" y="508"/>
      <point x="286" y="543"/>
      <point x="286" y="581" type="curve" smooth="yes"/>
      <point x="286" y="659"/>
      <point x="230" y="706"/>
      <point x="156" y="706" type="curve" smooth="yes"/>
      <point x="88" y="706"/>
      <point x="28" y="662"/>
      <point x="28" y="580" type="curve" smooth="yes"/>
      <point x="28" y="482"/>
      <point x="118" y="444"/>
      <point x="181" y="470" type="curve"/>
    </contour>
    <contour>
      <point x="153" y="507" type="curve" smooth="yes"/>
      <point x="108" y="507"/>
      <point x="82" y="541"/>
      <point x="82" y="581" type="curve" smooth="yes"/>
      <point x="82" y="634"/>
      <point x="117" y="658"/>
      <point x="156" y="658" type="curve" smooth="yes"/>
      <point x="195" y="658"/>
      <point x="231" y="632"/>
      <point x="231" y="580" type="curve" smooth="yes"/>
      <point x="231" y="534"/>
      <point x="199" y="507"/>
    </contour>
  </outline>
</glyph>
<glyph name="one.lf" format="2">
  <advance width="268"/>
  <outline>
    <contour>
      <point x="99" y="0" type="line"/>
      <point x="183" y="0" type="line"/>
      <point x="183" y="713" type="line"/>
      <point x="-17" y="633" type="line"/>
      <point x="11" y="561" type="line"/>
      <point x="97" y="597" type="line"/>
      <point x="99" y="594" type="line"/>
    </contour>
  </outline>
</glyph>
<glyph name="one.tf" format="2">
  <advance width="596"/>
  <outline>
    <contour>
      <point x="279" y="0" type="line"/>
      <point x="363" y="0" type="line"/>
      <point x="363" y="713" type="line"/>
      <point x="77" y="598" type="line"/>
      <point x="105" y="526" type="line"/>
      <point x="277" y="597" type="line"/>
      <point x="279" y="594" type="line"/>
    </contour>
    <contour>
      <point x="130" y="0" type="line"/>
      <point x="518" y="0" type="line"/>
      <point x="518" y="72" type="line"/>
      <point x="130" y="72" type="line"/>
    </contour>
  </outline>
</glyph>
<glyph name="ordfeminine.ss01" format="2">
  <advance width="543"/>
  <outline>
    <contour>
      <point x="247" y="310" type="curve" smooth="yes"/>
      <point x="318" y="310"/>
      <point x="358" y="345"/>
      <point x="383" y="394" type="curve"/>
      <point x="388" y="394" type="line"/>
      <point x="388" y="320" type="line"/>
      <point x="447" y="320" type="line"/>
      <point x="447" y="702" type="line"/>
      <point x="388" y="702" type="line"/>
      <point x="388" y="631" type="line"/>
      <point x="383" y="631" type="line"/>
      <point x="358" y="679"/>
      <point x="315" y="713"/>
      <point x="247" y="713" type="curve" smooth="yes"/>
      <point x="137" y="713"/>
      <point x="55" y="629"/>
      <point x="55" y="511" type="curve" smooth="yes"/>
      <point x="55" y="392"/>
      <point x="137" y="310"/>
    </contour>
    <contour>
      <point x="252" y="368" type="curve" smooth="yes"/>
      <point x="170" y="368"/>
      <point x="118" y="429"/>
      <point x="118" y="512" type="curve" smooth="yes"/>
      <point x="118" y="595"/>
      <point x="170" y="655"/>
      <point x="252" y="655" type="curve" smooth="yes"/>
      <point x="334" y="655"/>
      <point x="387" y="586"/>
      <point x="387" y="511" type="curve" smooth="yes"/>
      <point x="387" y="431"/>
      <point x="334" y="368"/>
    </contour>
    <contour>
      <point x="81" y="201" type="line"/>
      <point x="447" y="201" type="line"/>
      <point x="447" y="256" type="line"/>
      <point x="81" y="256" type="line"/>
    </contour>
  </outline>
</glyph>
<glyph name="rupeeIndian.tf" format="2">
  <advance width="596"/>
  <outline>
    <contour>
      <point x="353" y="30" type="line"/>
      <point x="454" y="30" type="line"/>
      <point x="250" y="312" type="line"/>
      <point x="246" y="278" type="line"/>
      <point x="351" y="281"/>
      <point x="454" y="347"/>
      <point x="454" y="473" type="curve" smooth="yes"/>
      <point x="454" y="605"/>
      <point x="376" y="670"/>
      <point x="249" y="670" type="curve" smooth="yes"/>
      <point x="32" y="670" type="line"/>
      <point x="32" y="594" type="line"/>
      <point x="237" y="594" type="line" smooth="yes"/>
      <point x="333" y="594"/>
      <point x="368" y="562"/>
      <point x="368" y="473" type="curve" smooth="yes"/>
      <point x="368" y="381"/>
      <point x="303" y="349"/>
      <point x="207" y="349" type="curve" smooth="yes"/>
      <point x="32" y="349" type="line"/>
      <point x="32" y="273" type="line"/>
      <point x="178" y="273" type="line"/>
    </contour>
    <contour>
      <point x="32" y="435" type="line"/>
      <point x="497" y="435" type="line"/>
      <point x="546" y="507" type="line"/>
      <point x="81" y="507" type="line"/>
    </contour>
    <contour>
      <point x="154" y="597" type="line"/>
      <point x="527" y="597" type="line"/>
      <point x="576" y="669" type="line"/>
      <point x="154" y="669" type="line"/>
    </contour>
  </outline>
</glyph>
<glyph name="six.numr" format="2">
  <advance width="319"/>
  <outline>
    <contour>
      <point x="163" y="355" type="curve" smooth="yes"/>
      <point x="120" y="355"/>
      <point x="87" y="387"/>
      <point x="87" y="433" type="curve" smooth="yes"/>
      <point x="87" y="478"/>
      <point x="121" y="507"/>
      <point x="166" y="507" type="curve" smooth="yes"/>
      <point x="203" y="507"/>
      <point x="237" y="475"/>
      <point x="237" y="432" type="curve" smooth="yes"/>
      <point x="237" y="382"/>
      <point x="198" y="355"/>
    </contour>
    <contour>
      <point x="163" y="307" type="curve" smooth="yes"/>
      <point x="242" y="307"/>
      <point x="291" y="365"/>
      <point x="291" y="433" type="curve" smooth="yes"/>
      <point x="291" y="527"/>
      <point x="206" y="571"/>
      <point x="137" y="543" type="curve"/>
      <point x="230" y="700" type="line"/>
      <point x="166" y="700" type="line"/>
      <point x="70" y="537" type="line" smooth="yes"/>
      <point x="55" y="512"/>
      <point x="32" y="470"/>
      <point x="32" y="432" type="curve" smooth="yes"/>
      <point x="32" y="363"/>
      <point x="80" y="307"/>
    </contour>
  </outline>
</glyph>
<glyph name="slashlongcomb.case" format="2">
  <anchor x="380" y="361" name="_center"/>
  <outline>
    <contour>
      <point x="29" y="-40" type="line"/>
      <point x="108" y="-40" type="line"/>
      <point x="720" y="748" type="line"/>
      <point x="641" y="748" type="line"/>
    </contour>
  </outline>
</glyph>
<glyph name="t.ss10" format="2">
  <advance width="339"/>
  <anchor x="171" y="331" name="bar"/>
  <anchor x="161" y="0" name="bottom"/>
  <anchor x="161" y="276" name="center"/>
  <anchor x="161" y="610" name="top"/>
  <anchor x="263" y="740" name="topright"/>
  <outline>
    <contour>
      <point x="121" y="0" type="line"/>
      <point x="201" y="0" type="line"/>
      <point x="201" y="610" type="line"/>
      <point x="121" y="610" type="line"/>
    </contour>
    <contour>
      <point x="17" y="418" type="line"/>
      <point x="322" y="418" type="line"/>
      <point x="322" y="490" type="line"/>
      <point x="17" y="490" type="line"/>
    </contour>
  </outline>
</glyph>
<glyph name="tildecomb.case" format="2">
  <anchor x="0" y="700" name="_top"/>
  <anchor x="0" y="804" name="top"/>
  <outline>
    <contour>
      <point x="64" y="736" type="curve" smooth="yes"/>
      <point x="116" y="736"/>
      <point x="152" y="773"/>
      <point x="152" y="825" type="curve"/>
      <point x="102" y="825" type="line"/>
      <point x="102" y="808"/>
      <point x="90" y="793"/>
      <point x="67" y="793" type="curve" smooth="yes"/>
      <point x="21" y="793"/>
      <point x="10" y="833"/>
      <point x="-68" y="833" type="curve" smooth="yes"/>
      <point x="-119" y="833"/>
      <point x="-155" y="796"/>
      <point x="-155" y="744" type="curve"/>
      <point x="-107" y="744" type="line"/>
      <point x="-107" y="761"/>
      <point x="-94" y="776"/>
      <point x="-69" y="776" type="curve" smooth="yes"/>
      <point x="-24" y="776"/>
      <point x="-14" y="736"/>
    </contour>
  </outline>
</glyph>
<glyph name="u.ss10" format="2">
  <advance width="541"/>
  <anchor x="271" y="0" name="bottom"/>
  <anchor x="271" y="0" name="ogonek"/>
  <anchor x="272" y="490" name="top"/>
  <anchor x="474" y="490" name="topright"/>
  <outline>
    <contour>
      <point x="271" y="-12" type="curve" smooth="yes"/>
      <point x="396" y="-12"/>
      <point x="474" y="65"/>
      <point x="474" y="205" type="curve" smooth="yes"/>
      <point x="474" y="490" type="line"/>
      <point x="395" y="490" type="line"/>
      <point x="395" y="205" type="line" smooth="yes"/>
      <point x="395" y="110"/>
      <point x="352" y="61"/>
      <point x="271" y="61" type="curve" smooth="yes"/>
      <point x="190" y="61"/>
      <point x="147" y="110"/>
      <point x="147" y="205" type="curve" smooth="yes"/>
      <point x="147" y="490" type="line"/>
      <point x="67" y="490" type="line"/>
      <point x="67" y="205" type="line" smooth="yes"/>
      <point x="67" y="65"/>
      <point x="146" y="-12"/>
    </contour>
  </outline>
</glyph>
<glyph name="won.tf" format="2">
  <advance width="596"/>
  <outline>
    <contour>
      <point x="116" y="30" type="line"/>
      <point x="217" y="30" type="line"/>
      <point x="289" y="421" type="line" smooth="yes"/>
      <point x="300" y="481"/>
      <point x="302" y="511"/>
      <point x="304" y="541" type="curve"/>
      <point x="306" y="541" type="line"/>
      <point x="309" y="511"/>
      <point x="312" y="481"/>
      <point x="321" y="421" type="curve" smooth="yes"/>
      <point x="381" y="30" type="line"/>
      <point x="479" y="30" type="line"/>
      <point x="572" y="670" type="line"/>
      <point x="491" y="670" type="line"/>
      <point x="443" y="284" type="line" smooth="yes"/>
      <point x="435" y="220"/>
      <point x="434" y="179"/>
      <point x="433" y="148" type="curve"/>
      <point x="429" y="148" type="line"/>
      <point x="427" y="179"/>
      <point x="418" y="220"/>
      <point x="409" y="284" type="curve" smooth="yes"/>
      <point x="352" y="670" type="line"/>
      <point x="258" y="670" type="line"/>
      <point x="193" y="284" type="line" smooth="yes"/>
      <point x="182" y="220"/>
      <point x="173" y="179"/>
      <point x="169" y="148" type="curve"/>
      <point x="167" y="148" type="line"/>
      <point x="165" y="179"/>
      <point x="161" y="220"/>
      <point x="153" y="284" type="curve" smooth="yes"/>
      <point x="103" y="670" type="line"/>
      <point x="24" y="670" type="line"/>
    </contour>
    <contour>
      <point x="13" y="318" type="line"/>
      <point x="583" y="318" type="line"/>
      <point x="583" y="380" type="line"/>
      <point x="13" y="380" type="line"/>
    </contour>
  </outline>
</glyph>
<glyph name="zero.ss10" format="2">
  <advance width="614"/>
  <outline>
    <contour>
      <point x="307" y="-13" type="curve" smooth="yes"/>
      <point x="453" y="-13"/>
      <point x="559" y="110"/>
      <point x="559" y="348" type="curve" smooth="yes"/>
      <point x="559" y="582"/>
      <point x="461" y="711"/>
      <point x="307" y="711" type="curve" smooth="yes"/>
      <point x="154" y="711"/>
      <point x="55" y="585"/>
      <point x="55" y="348" type="curve" smooth="yes"/>
      <point x="55" y="109"/>
      <point x="161" y="-13"/>
    </contour>
    <contour>
      <point x="307" y="64" type="curve" smooth="yes"/>
      <point x="225" y="64"/>
      <point x="143" y="139"/>
      <point x="143" y="348" type="curve" smooth="yes"/>
      <point x="143" y="570"/>
      <point x="225" y="634"/>
      <point x="307" y="634" type="curve" smooth="yes"/>
      <point x="389" y="634"/>
      <point x="471" y="570"/>
      <point x="471" y="348" type="curve" smooth="yes"/>
      <point x="471" y="139"/>
      <point x="389" y="64"/>
    </contour>
  </outline>
</glyph>
<glyph name="zero.tf" format="2">
  <advance width="596"/>
  <outline>
    <contour>
      <point x="298" y="-13" type="curve" smooth="yes"/>
      <point x="438" y="-12"/>
      <point x="540" y="92"/>
      <point x="540" y="239" type="curve" smooth="yes"/>
      <point x="540" y="471" type="line" smooth="yes"/>
      <point x="540" y="606"/>
      <point x="438" y="712"/>
      <point x="298" y="711" type="curve" smooth="yes"/>
      <point x="158" y="710"/>
      <point x="56" y="606"/>
      <point x="56" y="466" type="curve" smooth="yes"/>
      <point x="56" y="232" type="line" smooth="yes"/>
      <point x="56" y="92"/>
      <point x="158" y="-14"/>
    </contour>
    <contour>
      <point x="298" y="64" type="curve" smooth="yes"/>
      <point x="209" y="64"/>
      <point x="144" y="132"/>
      <point x="144" y="244" type="curve" smooth="yes"/>
      <point x="144" y="465" type="line" smooth="yes"/>
      <point x="144" y="569"/>
      <point x="209" y="634"/>
      <point x="298" y="634" type="curve" smooth="yes"/>
      <point x="387" y="634"/>
      <point x="452" y="566"/>
      <point x="452" y="460" type="curve" smooth="yes"/>
      <point x="452" y="238" type="line" smooth="yes"/>
      <point x="452" y="129"/>
      <point x="387" y="64"/>
    </contour>
  </outline>
</glyph>
